<svg width="13" height="4" viewBox="0 0 13 4" fill="none" xmlns="http://www.w3.org/2000/svg">
<path d="M0 2.0791C0 0.958488 0.860356 0.156658 2.01844 0.156658C2.66114 0.156658 3.19758 0.390225 3.54819 0.815268L2.99583 1.32501C2.74635 1.03806 2.43271 0.889187 2.06157 0.889187C1.366 0.889187 0.872162 1.37788 0.872162 2.07859C0.872162 2.77981 1.366 3.26799 2.06157 3.26799C2.43323 3.26799 2.74635 3.11912 2.99583 2.82755L3.54819 3.33729C3.19758 3.76747 2.66114 4.00104 2.01331 4.00104C0.860351 4.00155 0 3.19972 0 2.0791Z" fill="#263238"/>
<path d="M6.98723 2.30437V3.94037H6.15921V2.43219C6.15921 1.97019 5.94669 1.75767 5.58017 1.75767C5.18182 1.75767 4.89486 2.00202 4.89486 2.52767V3.94037H4.06684V0H4.89486V1.38088C5.11816 1.15758 5.43695 1.04105 5.80347 1.04105C6.47748 1.04053 6.98723 1.43324 6.98723 2.30437Z" fill="#263238"/>
<path d="M10.2623 2.3102V3.94056H9.48719V3.58482C9.33267 3.84508 9.03544 3.98317 8.61604 3.98317C7.94716 3.98317 7.54883 3.611 7.54883 3.11717C7.54883 2.61256 7.90456 2.26195 8.77569 2.26195H9.43431C9.43431 1.90621 9.22178 1.69882 8.77569 1.69882C8.47282 1.69882 8.15969 1.79944 7.9523 1.96422L7.65509 1.38517C7.96822 1.16187 8.43073 1.04021 8.88709 1.04021C9.75822 1.04124 10.2623 1.44472 10.2623 2.3102ZM9.43431 3.03811V2.74603H8.86554C8.47797 2.74603 8.35579 2.88925 8.35579 3.08072C8.35579 3.2876 8.53135 3.42569 8.82292 3.42569C9.0991 3.42569 9.33832 3.29786 9.43431 3.03811Z" fill="#263238"/>
<path d="M12.8527 3.80224C12.6828 3.92441 12.4333 3.98293 12.1782 3.98293C11.5036 3.98293 11.1109 3.63745 11.1109 2.9578V1.78431H10.6705V1.14674H11.1109V0.451175H11.9395V1.14674H12.651V1.78431H11.9395V2.94753C11.9395 3.19188 12.0719 3.32432 12.2947 3.32432C12.4169 3.32432 12.5395 3.28736 12.6294 3.21806L12.8527 3.80224Z" fill="#263238"/>
</svg>
