<svg width="22" height="22" viewBox="0 0 22 22" fill="none" xmlns="http://www.w3.org/2000/svg">
<path d="M10.9958 21.9455C17.0686 21.9455 21.9916 17.0329 21.9916 10.9728C21.9916 4.91267 17.0686 0 10.9958 0C4.923 0 0 4.91267 0 10.9728C0 17.0329 4.923 21.9455 10.9958 21.9455Z" fill="#E0E0E0"/>
<path d="M5.86454 13.7266L8.74267 13.4825L15.7745 14.6668L16.6045 19.9569L16.4868 20.5721C13.0871 22.459 9.28437 22.4124 6.06357 20.8118L5.86454 13.7266Z" fill="#455A64"/>
<path d="M14.2724 14.5812C14.2724 14.5812 16.4872 14.143 17.9192 16.1843C18.7957 17.4334 19.2256 18.2614 19.2256 18.2614C18.0824 19.5046 17.1515 20.4512 15.5607 21.0037L14.2724 14.5812Z" fill="#455A64"/>
<path d="M5.86367 13.7153C5.86367 13.7153 3.9611 13.9482 3.22232 15.5704C2.48355 17.1925 2.31589 17.7024 2.31589 17.7024C3.30076 18.8858 4.55133 20.2868 6.08525 20.8124C6.08525 20.8124 6.43529 16.7263 6.48186 15.5704C6.53235 14.3041 6.58185 13.6791 5.86367 13.7153Z" fill="#455A64"/>
<path d="M7.60387 3.32896C8.63139 2.07594 10.0114 1.35432 11.634 1.32736C12.5493 1.31216 12.9282 1.50188 13.5876 1.67983C14.2469 1.85729 14.8416 2.21025 15.2348 2.76715C15.7019 3.42847 16.0941 4.16969 16.1824 4.97367C16.273 5.80019 16.3637 6.63211 16.3015 7.46059C16.2392 8.28957 16.0132 9.12443 15.524 9.79703L13.4106 10.1632C12.2434 10.2029 11.06 10.2412 9.92265 9.97546C8.78532 9.70976 7.68034 9.09893 7.07148 8.10475C6.22486 6.72378 6.57635 4.58247 7.60387 3.32896Z" fill="#263238"/>
<path d="M5.55729 9.44948C5.60975 8.97347 5.85976 8.50629 6.27302 8.26264C6.68628 8.019 7.26327 8.04449 7.60741 8.37784L7.9393 8.77296C8.45992 8.99406 8.78691 9.58478 8.72416 10.1461C8.66141 10.7074 8.22903 11.202 7.68733 11.3668C7.14612 11.5315 6.52548 11.3717 6.11173 10.9868C5.69798 10.6015 5.49553 10.0108 5.55729 9.44948Z" fill="#263238"/>
<path d="M5.97454 10.8732C5.98974 10.8658 5.84316 10.731 5.86081 10.4536C5.87846 10.1834 6.07504 9.82949 6.34466 9.50545C6.61968 9.17945 6.94372 8.95689 7.19177 8.82796C7.43934 8.69511 7.60945 8.64707 7.60455 8.62942C7.60259 8.61913 7.42316 8.64266 7.15942 8.76227C6.89616 8.87748 6.55153 9.09955 6.26573 9.43879C6.12258 9.60694 6.00788 9.78537 5.92405 9.95744C5.83924 10.1285 5.7863 10.3016 5.78777 10.4516C5.78728 10.6021 5.83581 10.7183 5.88238 10.7859C5.92993 10.8541 5.97062 10.8781 5.97454 10.8732Z" fill="#455A64"/>
<path d="M13.4008 14.376C13.4008 14.376 13.3895 12.4156 13.3895 12.4195C13.3895 12.4195 15.1131 12.2298 15.5891 10.0257C15.8259 8.92956 15.87 7.11327 15.8578 5.62641C15.847 4.2876 14.7047 2.46493 13.0483 2.45905L12.3125 2.37374L9.49461 3.49146C9.08772 3.51205 8.76418 3.84002 8.74997 4.24641L8.66516 13.6612L9.95592 15.4702C11.0261 16.9708 13.3919 16.2197 13.4008 14.376Z" fill="#FFBE9D"/>
<path d="M12.2662 9.33368C12.2814 9.2175 12.3461 9.11455 12.429 9.04445C12.5942 8.90327 12.8354 8.88954 13.0118 9.01112C13.1883 9.1327 13.2898 9.38221 13.2565 9.61409C13.1574 9.74988 13.0055 9.84206 12.8378 9.85627C12.8118 9.85823 12.7853 9.8592 12.7594 9.85871C12.6319 9.85528 12.5025 9.81264 12.4054 9.71901C12.3074 9.62538 12.2471 9.47683 12.2662 9.33368Z" fill="#EB996E"/>
<path d="M14.8311 7.17487C14.8281 7.32586 14.6977 7.44792 14.5399 7.44743C14.382 7.44743 14.2565 7.32536 14.2595 7.17437C14.2624 7.02338 14.3928 6.90132 14.5506 6.90181C14.7085 6.90181 14.834 7.02437 14.8311 7.17487Z" fill="#263238"/>
<path d="M15.3015 6.44717C15.2642 6.48246 15.0564 6.31088 14.7485 6.2947C14.4416 6.27412 14.2073 6.41971 14.1759 6.38049C14.1602 6.36284 14.2004 6.29765 14.3024 6.23196C14.4029 6.16627 14.572 6.10597 14.7632 6.11724C14.9549 6.12901 15.1118 6.20794 15.2005 6.28491C15.2917 6.36236 15.3201 6.43148 15.3015 6.44717Z" fill="#263238"/>
<path d="M13.3638 8.79257C13.3633 8.77493 13.5565 8.75285 13.8682 8.72981C13.9472 8.72589 14.0227 8.71463 14.0388 8.66168C14.0604 8.6058 14.0325 8.51951 13.9991 8.42637C13.9359 8.23273 13.8692 8.02977 13.7996 7.81701C13.5241 6.9498 13.329 6.23849 13.3638 6.22771C13.3991 6.21692 13.6511 6.91108 13.9266 7.77829C13.9928 7.99203 14.056 8.19596 14.1158 8.39058C14.1408 8.48128 14.1859 8.5852 14.1398 8.7004C14.1153 8.75776 14.0555 8.79699 14.0045 8.80777C13.9535 8.82052 13.9089 8.81855 13.8702 8.81904C13.5574 8.81904 13.3638 8.80973 13.3638 8.79257Z" fill="#263238"/>
<path d="M13.3714 12.4317C13.3714 12.4317 11.8669 12.4459 10.4305 11.4738C10.4305 11.4738 11.1408 13.0587 13.3827 12.9729L13.3714 12.4317Z" fill="#EB996E"/>
<path d="M12.4575 8.94054C12.5075 8.94054 12.4899 9.2734 12.7629 9.52537C13.035 9.77833 13.3929 9.76019 13.3929 9.80677C13.3963 9.82785 13.31 9.86706 13.1595 9.86314C13.012 9.8602 12.7992 9.80087 12.6325 9.64694C12.4659 9.49252 12.4016 9.29497 12.3977 9.1577C12.3928 9.0175 12.435 8.9371 12.4575 8.94054Z" fill="#263238"/>
<path d="M15.2297 5.30246C15.1738 5.37452 14.941 5.31129 14.665 5.31914C14.3885 5.31816 14.1566 5.38678 14.0998 5.3157C14.0748 5.28138 14.1086 5.2098 14.2081 5.1397C14.3061 5.07009 14.4723 5.0093 14.6625 5.00685C14.8527 5.00489 15.0194 5.06128 15.1184 5.12893C15.2189 5.19707 15.2542 5.26765 15.2297 5.30246Z" fill="#263238"/>
<path d="M11.4592 7.15498C11.4513 7.30597 11.5724 7.43687 11.7303 7.44814C11.8876 7.45942 12.0219 7.34666 12.0298 7.19567C12.0376 7.04517 11.9165 6.91379 11.7592 6.90252C11.6018 6.89173 11.4675 7.00448 11.4592 7.15498Z" fill="#263238"/>
<path d="M11.0881 6.35475C11.1229 6.3925 11.3425 6.23612 11.6504 6.24249C11.9583 6.24396 12.1813 6.40622 12.2151 6.36897C12.2318 6.35279 12.1965 6.28465 12.0999 6.21161C12.0043 6.13857 11.8401 6.06651 11.6484 6.06405C11.4567 6.06209 11.294 6.12973 11.1999 6.19984C11.1043 6.27092 11.0709 6.33809 11.0881 6.35475Z" fill="#263238"/>
<path d="M10.9166 5.69819C10.9759 5.76878 11.2146 5.70064 11.5004 5.70211C11.7862 5.69476 12.0269 5.758 12.0843 5.68594C12.1093 5.65064 12.0725 5.58054 11.9676 5.5124C11.8647 5.44475 11.6911 5.38788 11.495 5.38984C11.2984 5.3918 11.1274 5.45209 11.0269 5.5222C10.9249 5.5923 10.8906 5.66339 10.9166 5.69819Z" fill="#263238"/>
<path d="M9.12708 7.78983C9.1359 7.62413 8.96531 7.22312 8.80305 7.18881C8.36919 7.09664 7.57844 7.0888 7.5103 8.19721C7.41667 9.7125 8.96089 9.49386 8.96628 9.45023C8.9702 9.4164 9.09717 8.36144 9.12708 7.78983Z" fill="#FFBE9D"/>
<path d="M8.58119 8.88427C8.57482 8.87888 8.55374 8.90093 8.50766 8.91907C8.46256 8.93622 8.38706 8.94554 8.3096 8.91123C8.15273 8.8426 8.03312 8.58032 8.04293 8.30628C8.04734 8.16804 8.08458 8.03862 8.14047 7.93273C8.1939 7.82488 8.27038 7.75184 8.35225 7.74252C8.43363 7.7288 8.48804 7.78076 8.50373 7.82439C8.52138 7.86802 8.51011 7.89792 8.51796 7.90087C8.52188 7.90479 8.55226 7.87733 8.54393 7.8141C8.53951 7.7837 8.52383 7.74645 8.49001 7.71556C8.4552 7.6837 8.40275 7.66555 8.34588 7.66801C8.22822 7.66899 8.11646 7.76998 8.05518 7.88616C7.98753 8.00234 7.94242 8.14794 7.93752 8.30286C7.9282 8.60876 8.06743 8.90436 8.28313 8.98084C8.38804 9.01515 8.47922 8.98868 8.52775 8.95535C8.57629 8.92054 8.58659 8.88721 8.58119 8.88427Z" fill="#EB996E"/>
<path d="M8.73742 7.20674L9.12324 7.60627C10.7895 6.0145 14.0461 2.02945 13.8642 2.26721C13.8642 2.26721 12.723 1.79855 11.4837 2.00935C10.2449 2.22015 7.89423 2.83881 7.93051 4.29724C7.96679 5.75468 8.73742 7.20674 8.73742 7.20674Z" fill="#263238"/>
<path d="M6.53022 6.87324C6.52777 6.87275 6.53561 6.84236 6.55326 6.78549C6.5714 6.72863 6.60426 6.64676 6.65672 6.54675C6.7626 6.34723 6.96457 6.07711 7.29155 5.83396C7.61363 5.58443 8.06072 5.38049 8.56957 5.22068C9.07745 5.05547 9.65053 4.92752 10.2123 4.68633C10.7781 4.45445 11.2825 4.15542 11.7129 3.84755C12.1419 3.53626 12.4958 3.2137 12.7718 2.92349C13.0483 2.63278 13.2488 2.37737 13.3841 2.19844C13.4464 2.11314 13.4969 2.04402 13.5366 1.9896C13.5719 1.94205 13.5915 1.91753 13.5939 1.919C13.5964 1.92047 13.5812 1.94744 13.5498 1.99794C13.5179 2.04794 13.4733 2.12342 13.4091 2.21608C13.2807 2.40138 13.0856 2.66366 12.812 2.96123C12.539 3.25831 12.1855 3.58823 11.7551 3.90541C11.3232 4.21964 10.8143 4.52358 10.2422 4.7579C9.67259 5.00155 9.09608 5.12852 8.59115 5.28882C8.08425 5.44423 7.64452 5.63884 7.3244 5.87808C6.99938 6.11093 6.79544 6.36978 6.68318 6.56146C6.5719 6.7551 6.53807 6.87618 6.53022 6.87324Z" fill="#455A64"/>
<path d="M6.97191 7.11011C6.97191 7.11011 6.95671 6.98608 7.03074 6.77871C7.10133 6.57331 7.28124 6.29388 7.60136 6.06495C7.91854 5.82866 8.37103 5.68258 8.86861 5.56933C9.36815 5.45952 9.91035 5.31881 10.4432 5.07076C10.9756 4.82466 11.4531 4.52662 11.8472 4.20601C12.2438 3.88736 12.5635 3.55695 12.8096 3.26183C13.0591 2.96868 13.2262 2.70444 13.3464 2.526C13.3988 2.43972 13.441 2.36961 13.4753 2.31372C13.5057 2.26568 13.5223 2.24068 13.5248 2.24215C13.5272 2.24362 13.5145 2.27059 13.489 2.32108C13.4581 2.37893 13.4199 2.45198 13.3723 2.5412C13.2601 2.72552 13.0983 2.99612 12.8522 3.29663C12.609 3.59861 12.2904 3.93639 11.8923 4.26141C11.4962 4.58888 11.0143 4.89232 10.4756 5.14136C9.9373 5.39235 9.38285 5.53355 8.88478 5.63894C8.38818 5.74827 7.94452 5.88602 7.63323 6.10956C7.31752 6.32673 7.13663 6.59194 7.05918 6.78901C6.97829 6.98804 6.9827 7.11158 6.97191 7.11011Z" fill="#455A64"/>
<path d="M6.08259 20.807C6.05465 20.807 6.0321 20.158 6.0321 19.3579C6.0321 18.5574 6.05465 17.9088 6.08259 17.9088C6.11053 17.9088 6.13357 18.5574 6.13357 19.3579C6.13308 20.158 6.11053 20.807 6.08259 20.807Z" fill="#263238"/>
<path d="M16.4876 20.6058C16.4724 20.6043 16.4866 20.4073 16.5047 20.0911C16.5194 19.7749 16.5395 19.3361 16.4621 18.8625C16.3822 18.389 16.2223 17.9787 16.1091 17.6821C15.9919 17.386 15.9179 17.2031 15.9316 17.1968C15.9434 17.1919 16.041 17.3644 16.1753 17.6551C16.3062 17.9463 16.4797 18.3601 16.5621 18.8464C16.6415 19.3337 16.6087 19.7803 16.5758 20.0965C16.5395 20.4136 16.5003 20.6073 16.4876 20.6058Z" fill="#263238"/>
</svg>
