<svg width="76" height="32" viewBox="0 0 76 32" fill="none" xmlns="http://www.w3.org/2000/svg">
<rect width="32" height="32" fill="white"/>
<circle cx="16" cy="16" r="15.6364" fill="white" stroke="#E3E5E6" stroke-width="0.727273"/>
<path d="M15.9993 14.5469C16.8026 14.5469 17.4538 15.1981 17.4538 16.0014C17.4538 16.8047 16.8026 17.456 15.9993 17.456C15.196 17.456 14.5447 16.8047 14.5447 16.0014C14.5447 15.1981 15.196 14.5469 15.9993 14.5469Z" fill="#72777A"/>
<path d="M10.1811 14.5469C10.9844 14.5469 11.6357 15.1981 11.6357 16.0014C11.6357 16.8047 10.9844 17.456 10.1811 17.456C9.37778 17.456 8.72656 16.8047 8.72656 16.0014C8.72656 15.1981 9.37778 14.5469 10.1811 14.5469Z" fill="#72777A"/>
<path d="M21.8175 14.5469C22.6208 14.5469 23.272 15.1981 23.272 16.0014C23.272 16.8047 22.6208 17.456 21.8175 17.456C21.0141 17.456 20.3629 16.8047 20.3629 16.0014C20.3629 15.1981 21.0141 14.5469 21.8175 14.5469Z" fill="#72777A"/>
<rect width="32" height="32" transform="translate(44)" fill="white"/>
<circle cx="60" cy="16" r="15.6364" fill="white" stroke="#E3E5E6" stroke-width="0.727273"/>
<rect x="54.9092" y="16" width="10.1818" height="0.727273" rx="0.363636" fill="black"/>
</svg>
