<svg width="24" height="24" viewBox="0 0 24 24" fill="none" xmlns="http://www.w3.org/2000/svg">
<path d="M12.8151 12.1978L5.28308 13.4538C5.19649 13.4683 5.11522 13.5053 5.04746 13.5611C4.97971 13.6169 4.92784 13.6896 4.89708 13.7718L2.30008 20.7288C2.05208 21.3688 2.72108 21.9788 3.33508 21.6718L21.3351 12.6718C21.4598 12.6096 21.5646 12.5138 21.6379 12.3953C21.7112 12.2768 21.75 12.1402 21.75 12.0008C21.75 11.8615 21.7112 11.7249 21.6379 11.6063C21.5646 11.4878 21.4598 11.3921 21.3351 11.3298L3.33508 2.32982C2.72108 2.02282 2.05208 2.63382 2.30008 3.27282L4.89808 10.2298C4.92869 10.3122 4.9805 10.3851 5.04827 10.4411C5.11604 10.4971 5.19737 10.5343 5.28408 10.5488L12.8161 11.8038C12.8624 11.8119 12.9044 11.8361 12.9347 11.8722C12.965 11.9082 12.9816 11.9538 12.9816 12.0008C12.9816 12.0479 12.965 12.0934 12.9347 12.1295C12.9044 12.1655 12.8624 12.1897 12.8161 12.1978H12.8151Z" fill="#212121"/>
</svg>
