<svg width="98" height="201" viewBox="0 0 98 201" fill="none" xmlns="http://www.w3.org/2000/svg">
<path d="M83.094 200.844L14.8556 200.803C6.64865 200.799 -0.00192158 194.143 4.16481e-07 185.936L0.0336315 14.8618C0.035073 6.6501 6.69478 -0.00432238 14.9065 2.10656e-06L83.1449 0.0398835C91.3518 0.0446885 98.0019 6.70006 98.0004 14.9074L97.9668 185.983C97.9654 194.195 91.3057 200.849 83.094 200.844Z" fill="#455A64"/>
<path d="M83.0746 6.09255L69.8445 6.08486C68.0705 6.0839 66.6315 7.5869 66.6315 9.44162L66.6305 11.8412C66.6305 13.696 65.1914 15.1989 63.4174 15.198L37.6286 15.1826C35.8546 15.1817 34.4165 13.6772 34.4165 11.8225L34.4169 9.42288C34.4169 7.56816 32.9788 6.06324 31.2048 6.06276L26.5517 6.05988L14.9722 6.05315C9.22107 6.04979 4.55736 10.7106 4.55592 16.4612L4.52324 183.442C4.5218 189.191 9.17928 193.852 14.9275 193.855L83.0294 193.895C88.78 193.899 93.4442 189.238 93.4457 183.487L93.4783 16.5054C93.4793 10.7567 88.8223 6.09591 83.0746 6.09255Z" fill="white"/>
<path d="M93.4715 41.1886V16.3108C93.3697 10.652 88.7554 6.09444 83.0726 6.09108L69.8421 6.08339C68.0681 6.08243 66.629 7.58542 66.629 9.43967L66.628 11.8398C66.628 13.6945 65.1889 15.1975 63.4149 15.1965L37.6261 15.1811C35.8521 15.1802 34.414 13.6757 34.414 11.821L34.4145 9.42093C34.4145 7.5662 32.9764 6.06177 31.2024 6.06081L26.5492 6.05792L14.9697 6.05119C9.21861 6.04783 4.55442 10.7087 4.55346 16.4593L4.54866 41.2611H93.471L93.4715 41.1886Z" fill="#EBEBEB"/>
</svg>
