<svg width="144" height="152" viewBox="0 0 144 152" fill="none" xmlns="http://www.w3.org/2000/svg">
<path d="M40.5938 90.0514L20.3465 87.9367L11.8027 68.4943L5.14743 70.2306C5.14743 70.2306 10.0664 90.7751 15.5644 93.9582C21.0625 97.1413 39.8706 97.7199 39.8706 97.7199L40.5938 90.0514Z" fill="#FF725E"/>
<path d="M51.3559 99.9159C54.647 96.2127 54.3128 90.5427 50.6096 87.2517C46.9064 83.9607 41.2365 84.2948 37.9454 87.998C34.6544 91.7012 34.9886 97.3712 38.6918 100.662C42.395 103.953 48.0649 103.619 51.3559 99.9159Z" fill="#263238"/>
<path d="M44.6449 102.942C42.2455 102.942 39.9901 102.007 38.2936 100.311C36.5971 98.615 35.6627 96.3596 35.6627 93.9597C35.6627 91.5598 36.5971 89.3048 38.2936 87.6084C39.9901 85.9119 42.2455 84.977 44.6449 84.977C47.0444 84.977 49.2998 85.9114 50.9963 87.6084C52.6927 89.3044 53.6267 91.5602 53.6267 93.9597C53.6267 96.3587 52.6922 98.6145 50.9963 100.311C49.2998 102.007 47.0444 102.942 44.6449 102.942ZM44.6449 85.0019C42.2522 85.0019 40.0026 85.9335 38.3104 87.6257C36.6187 89.3173 35.6867 91.567 35.6867 93.9597C35.6867 96.3524 36.6183 98.6021 38.3104 100.294C40.0026 101.986 42.2522 102.917 44.6449 102.917C47.0377 102.917 49.2873 101.986 50.979 100.294C52.6711 98.6021 53.6027 96.3524 53.6027 93.9597C53.6027 91.567 52.6711 89.3173 50.979 87.6257C49.2873 85.9335 47.0377 85.0019 44.6449 85.0019Z" fill="#263238"/>
<path d="M18.5531 95.5042C22.1662 94.637 24.3922 91.005 23.525 87.3919C22.6577 83.7788 19.0257 81.5528 15.4126 82.42C11.7995 83.2873 9.57353 86.9193 10.4408 90.5324C11.308 94.1455 14.94 96.3715 18.5531 95.5042Z" fill="#263238"/>
<path d="M11.8749 70.0715C14.0214 67.9249 14.0214 64.4447 11.8749 62.2982C9.72834 60.1516 6.24811 60.1516 4.10158 62.2982C1.95504 64.4447 1.95504 67.9249 4.10158 70.0715C6.24812 72.218 9.72834 72.218 11.8749 70.0715Z" fill="#263238"/>
<path d="M12.0403 67.0272L16.5593 63.2108C17.0563 62.7911 17.1192 62.0478 16.6995 61.5508L16.5881 61.4192C16.1684 60.9222 15.4251 60.8593 14.9281 61.2795L10.4092 65.096L12.0403 67.0272Z" fill="#263238"/>
<path d="M10.8086 61.9511V56.2062C10.8086 55.5556 10.2813 55.0283 9.63069 55.0283H9.45831C8.80767 55.0283 8.28043 55.5556 8.28043 56.2062V61.9511C8.28043 62.0447 8.3563 62.121 8.45041 62.121H10.6391C10.7327 62.1206 10.8086 62.0447 10.8086 61.9511Z" fill="#263238"/>
<path d="M7.98733 61.8335L6.73311 56.227C6.59097 55.5922 5.96098 55.1926 5.32618 55.3343L5.15812 55.3718C4.52332 55.5139 4.12381 56.1434 4.26547 56.7787L5.51969 62.3853C5.54034 62.477 5.63109 62.5346 5.72281 62.5139L7.85913 62.0362C7.95036 62.016 8.00798 61.9252 7.98733 61.8335Z" fill="#263238"/>
<path d="M5.22003 62.6073L2.3476 57.6321C2.02252 57.0684 1.30177 56.8754 0.738519 57.2009L0.589184 57.2869C0.0254542 57.6125 -0.167098 58.3327 0.157983 58.8965L3.03041 63.8716C3.07747 63.9527 3.18119 63.9806 3.26234 63.934L5.15809 62.8397C5.23924 62.7926 5.26709 62.6889 5.22003 62.6073Z" fill="#263238"/>
<path d="M128.497 140.407L134.549 137.833L117.081 96.763L111.028 99.3372L128.497 140.407Z" fill="#FF725E"/>
<path d="M117.949 100.685C121.152 96.9047 120.683 91.2444 116.903 88.042C113.123 84.8397 107.463 85.308 104.261 89.088C101.058 92.8679 101.527 98.5282 105.307 101.731C109.087 104.933 114.747 104.465 117.949 100.685Z" fill="#263238"/>
<path d="M111.116 103.882C110.226 103.882 109.332 103.748 108.458 103.478C106.165 102.771 104.285 101.214 103.164 99.0926C102.042 96.9717 101.814 94.541 102.522 92.2476C103.229 89.9553 104.786 88.0754 106.908 86.9542C109.029 85.8334 111.46 85.6049 113.752 86.3126C116.044 87.0195 117.925 88.5772 119.045 90.6981C120.167 92.8191 120.395 95.2502 119.687 97.5431C118.98 99.8354 117.423 101.716 115.302 102.837C113.99 103.53 112.559 103.882 111.116 103.882ZM111.093 85.9333C109.654 85.9333 108.227 86.2838 106.919 86.9758C104.803 88.0936 103.25 89.9687 102.545 92.2553C101.839 94.542 102.067 96.9659 103.185 99.0816C104.303 101.197 106.178 102.751 108.464 103.456C110.751 104.16 113.176 103.933 115.29 102.815C117.406 101.697 118.96 99.822 119.665 97.5354C120.37 95.2488 120.142 92.8244 119.024 90.7092C117.906 88.594 116.031 87.0401 113.744 86.3352C112.873 86.0668 111.981 85.9333 111.093 85.9333Z" fill="#263238"/>
<path d="M129.279 121.705C130.274 118.125 128.178 114.416 124.598 113.421C121.018 112.426 117.309 114.521 116.314 118.101C115.319 121.681 117.415 125.39 120.995 126.385C124.575 127.38 128.283 125.285 129.279 121.705Z" fill="#263238"/>
<path d="M138.141 139.095C137.179 136.216 134.066 134.661 131.186 135.622C128.307 136.583 126.751 139.697 127.713 142.576C128.674 145.456 131.787 147.011 134.667 146.05C137.547 145.089 139.102 141.975 138.141 139.095Z" fill="#263238"/>
<path d="M128.817 141.318L125.74 146.369C125.401 146.925 125.577 147.65 126.132 147.988L126.28 148.078C126.835 148.417 127.56 148.241 127.899 147.685L130.977 142.634L128.817 141.318Z" fill="#263238"/>
<path d="M131.592 145.744L133.411 151.194C133.617 151.811 134.284 152.144 134.901 151.938L135.065 151.884C135.682 151.678 136.015 151.01 135.809 150.393L133.991 144.944C133.961 144.855 133.865 144.807 133.775 144.836L131.699 145.529C131.61 145.559 131.562 145.656 131.592 145.744Z" fill="#263238"/>
<path d="M134.305 144.96L137.27 149.881C137.605 150.439 138.329 150.618 138.887 150.282L139.035 150.193C139.592 149.858 139.772 149.133 139.436 148.576L136.471 143.655C136.423 143.575 136.318 143.549 136.238 143.597L134.363 144.727C134.282 144.775 134.256 144.88 134.305 144.96Z" fill="#263238"/>
<path d="M136.686 143.351L140.986 147.161C141.473 147.592 142.218 147.547 142.649 147.06L142.763 146.931C143.195 146.444 143.15 145.7 142.663 145.268L138.363 141.459C138.293 141.397 138.185 141.403 138.123 141.473L136.672 143.111C136.609 143.181 136.616 143.289 136.686 143.351Z" fill="#263238"/>
<path d="M41.96 84.6281C41.96 84.6281 42.6073 147.595 77.9441 148.827C113.281 150.059 114.762 85.0785 114.762 84.6281C114.762 84.6281 110.589 75.2373 78.3609 75.6051C46.1332 75.9724 41.96 84.6281 41.96 84.6281Z" fill="#FF725E"/>
<path d="M61.8137 73.5413H91.6823C93.6314 73.5413 95.2116 71.9615 95.2116 70.012V69.4953C95.2116 67.5463 93.6318 65.966 91.6823 65.966H61.8137C59.8647 65.966 58.2844 67.5458 58.2844 69.4953V70.012C58.2849 71.9615 59.8647 73.5413 61.8137 73.5413Z" fill="#263238"/>
<path d="M75.4661 17.5476H78.0447V4.50877H75.4661V17.5476Z" fill="#263238"/>
<path d="M116.192 56.3502C120.263 55.3824 122.779 51.2974 121.811 47.2263C120.843 43.1552 116.758 40.6395 112.687 41.6074C108.616 42.5753 106.1 46.6602 107.068 50.7313C108.036 54.8024 112.121 57.3181 116.192 56.3502Z" fill="#FF725E"/>
<path d="M39.6178 55.8637C43.6985 54.9381 46.2562 50.8797 45.3306 46.7989C44.405 42.7182 40.3466 40.1604 36.2658 41.0861C32.1851 42.0117 29.6273 46.0701 30.5529 50.1509C31.4786 54.2316 35.537 56.7893 39.6178 55.8637Z" fill="#FF725E"/>
<path d="M75.2524 14.7197C75.2524 14.7197 44.4446 14.3494 39.5674 41.033C34.6902 67.717 60.7443 68.2149 68.2374 68.7206C71.6357 68.9496 78.9051 68.9731 85.3198 68.8622C99.5216 68.6154 109.556 65.8669 112.971 52.6912C113.369 51.1547 113.638 49.5773 113.739 47.9725C114.642 33.5311 104.866 14.009 75.2524 14.7197Z" fill="#FF725E"/>
<path d="M97.6021 55.3635L52.8441 56.0621C48.1528 56.1356 44.2902 52.3916 44.2167 47.7003C44.1438 43.0089 47.8872 39.1464 52.5786 39.0734L97.3365 38.3747C102.028 38.3013 105.89 42.0452 105.963 46.7366C106.037 51.4274 102.293 55.29 97.6021 55.3635Z" fill="#263238"/>
<path d="M62.1302 46.771C61.8407 48.2485 60.4083 49.2117 58.9308 48.9222C57.4533 48.6326 56.49 47.2002 56.7796 45.7227C57.0691 44.2452 58.502 43.282 59.9795 43.5715C61.4565 43.8611 62.4197 45.2934 62.1302 46.771Z" fill="white"/>
<path d="M93.4006 46.2747C93.1111 47.7522 91.6787 48.7154 90.2012 48.4259C88.7237 48.1363 87.7605 46.7039 88.05 45.2264C88.3396 43.7489 89.7719 42.7857 91.2494 43.0752C92.7269 43.3643 93.6902 44.7967 93.4006 46.2747Z" fill="white"/>
<path d="M88.9014 109.636C88.4111 116.346 82.5731 121.389 75.8621 120.899C69.1511 120.408 64.1083 114.57 64.599 107.859C65.0898 101.148 70.9273 96.106 77.6383 96.5963C84.3493 97.087 89.3916 102.925 88.9014 109.636Z" fill="#263238"/>
<path d="M85.605 109.393C85.2478 114.283 80.9934 117.958 76.1032 117.6C71.2131 117.243 67.5383 112.989 67.896 108.098C68.2538 103.208 72.5077 99.534 77.3978 99.8913C82.2875 100.249 85.9623 104.503 85.605 109.393Z" fill="white"/>
<path d="M81.324 111.01C81.2899 110.989 81.264 110.463 81.2419 109.545C81.2198 108.627 81.2016 107.319 81.2001 105.72L81.2981 105.895C79.9685 105.12 78.4204 104.217 76.7301 103.231L76.9851 103.235C75.5518 104.04 73.9979 104.914 72.3759 105.825C72.251 106.033 72.5439 105.543 72.5137 105.594V105.595V105.598V105.603V105.614L72.5132 105.636L72.5127 105.679L72.5113 105.766L72.5089 105.94L72.5036 106.286L72.4925 106.971C72.4849 107.425 72.4777 107.874 72.47 108.316C72.4532 109.198 72.4368 110.055 72.421 110.88L72.2966 110.658C73.9662 111.678 75.4879 112.607 76.8094 113.414L76.6082 113.412C78.0165 112.654 79.1766 112.049 79.9958 111.633C80.815 111.216 81.2899 110.989 81.324 111.01C81.3581 111.03 80.9485 111.297 80.1706 111.772C79.3927 112.247 78.2441 112.93 76.8046 113.762L76.7061 113.819L76.6034 113.759C75.2661 112.979 73.7256 112.08 72.0354 111.095L71.9096 111.021L71.9111 110.871C71.9192 110.045 71.9279 109.189 71.937 108.307C71.9427 107.864 71.948 107.416 71.9538 106.962L71.9634 106.277L71.9682 105.931L71.9706 105.757L71.972 105.671L71.9725 105.627L71.973 105.605V105.594V105.589V105.586V105.585C71.9427 105.635 72.2361 105.143 72.1123 105.351C73.7396 104.449 75.2987 103.586 76.7369 102.789L76.8675 102.716L76.9918 102.792C78.6614 103.812 80.1908 104.746 81.5045 105.549L81.6059 105.611L81.6025 105.724C81.5535 107.386 81.4964 108.722 81.4479 109.632C81.3989 110.543 81.3581 111.03 81.324 111.01Z" fill="#FF725E"/>
<path d="M79.7608 7.25485C81.4205 5.59511 81.4205 2.90415 79.7608 1.24441C78.101 -0.415326 75.4101 -0.415326 73.7503 1.24441C72.0906 2.90415 72.0906 5.59511 73.7503 7.25485C75.4101 8.91459 78.101 8.91459 79.7608 7.25485Z" fill="#FF725E"/>
<path d="M69.9694 45.5155C70.172 45.5372 70.0712 46.4908 70.6661 47.7585C70.9538 48.388 71.4325 49.0761 72.1134 49.6609C72.789 50.2463 73.6889 50.6952 74.6747 50.7975C75.6633 50.8758 76.6295 50.5973 77.4002 50.144C78.1756 49.6926 78.7715 49.1025 79.1682 48.5354C79.983 47.3964 80.0565 46.4409 80.2596 46.4557C80.3388 46.4572 80.4219 46.6982 80.4219 47.1491C80.4248 47.5995 80.2942 48.2578 79.9259 48.9906C79.5619 49.7224 78.9266 50.5061 78.0119 51.1202C77.1072 51.7334 75.8794 52.1502 74.5609 52.0426C73.2452 51.9096 72.1139 51.2772 71.335 50.5104C70.5466 49.7406 70.064 48.8552 69.8383 48.0696C69.6093 47.2826 69.5996 46.6108 69.6842 46.1686C69.7663 45.7244 69.8911 45.5026 69.9694 45.5155Z" fill="white"/>
<path d="M110.987 57.9594C110.942 57.9335 111.494 57.0951 112.026 55.5821C112.571 54.0772 113.047 51.8986 113.275 49.4622C113.519 47.0243 113.482 44.7992 113.419 43.1954C113.382 42.393 113.345 41.7433 113.308 41.2953C113.276 40.8468 113.267 40.5971 113.284 40.5952C113.301 40.5933 113.344 40.8387 113.405 41.2857C113.471 41.7318 113.536 42.3815 113.596 43.1858C113.704 44.7934 113.769 47.0311 113.525 49.4867C113.295 51.9404 112.787 54.1372 112.192 55.6435C111.903 56.3998 111.605 56.9861 111.377 57.3755C111.14 57.7611 111.002 57.9686 110.987 57.9594Z" fill="#263238"/>
<path d="M39.637 40.1635C39.6533 40.1688 39.5981 40.4132 39.4848 40.8487C39.4252 41.0658 39.3561 41.3323 39.2932 41.6458C39.2279 41.9584 39.1367 42.3109 39.0771 42.7084C38.9268 43.4974 38.8101 44.4481 38.7395 45.5065C38.6848 46.5657 38.6858 47.7335 38.7885 48.9537C38.9023 50.1733 39.1069 51.3233 39.3475 52.3567C39.6029 53.3862 39.8857 54.3014 40.1724 55.0519C40.3011 55.4327 40.4528 55.7636 40.5724 56.0598C40.6896 56.3575 40.8048 56.6072 40.9013 56.8104C41.0895 57.219 41.187 57.4499 41.1717 57.4581C41.1563 57.4663 41.03 57.2512 40.8139 56.8536C40.7035 56.6562 40.5748 56.4108 40.4447 56.117C40.3121 55.8241 40.1479 55.4961 40.0077 55.1158C39.6975 54.3672 39.3945 53.4496 39.1237 52.4119C38.8682 51.3714 38.6541 50.2088 38.5393 48.9762C38.4356 47.7426 38.4414 46.5614 38.5095 45.4921C38.5931 44.4237 38.7299 43.4662 38.9033 42.6753C38.9748 42.2768 39.0786 41.9243 39.1573 41.6132C39.2336 41.3011 39.3172 41.037 39.3911 40.8228C39.5338 40.3921 39.6202 40.1577 39.637 40.1635Z" fill="#263238"/>
<path d="M41.8135 84.5711C41.8149 84.5672 41.8778 84.5855 41.9988 84.6253C42.1309 84.67 42.3081 84.7305 42.5337 84.8073C43.0149 84.9768 43.7025 85.2193 44.5817 85.5295C45.0268 85.6884 45.52 85.8647 46.0587 86.0567C46.6023 86.2383 47.202 86.4097 47.8412 86.6085C49.1242 86.9897 50.5681 87.4829 52.2094 87.8689C53.0257 88.0783 53.8804 88.2977 54.7706 88.5258C55.6623 88.7501 56.6054 88.9172 57.5729 89.1275C59.5047 89.5712 61.6007 89.8727 63.7985 90.2285C68.2108 90.8278 73.0976 91.2393 78.2389 91.2614C83.3821 91.2403 88.2698 90.8297 92.6832 90.2309C94.8819 89.8751 96.9779 89.574 98.9096 89.1308C99.8772 88.921 100.82 88.7539 101.712 88.5297C102.602 88.3016 103.457 88.0821 104.273 87.8728C105.914 87.4867 107.358 86.9941 108.641 86.6128C109.281 86.414 109.88 86.2431 110.424 86.0611C110.963 85.869 111.456 85.6928 111.901 85.5338C112.78 85.2241 113.467 84.9816 113.948 84.8121C114.174 84.7353 114.351 84.6753 114.483 84.6301C114.604 84.5903 114.667 84.572 114.669 84.5764C114.67 84.5802 114.611 84.6066 114.492 84.6541C114.363 84.7046 114.188 84.7727 113.966 84.8592C113.488 85.0392 112.806 85.2966 111.933 85.6255C111.49 85.7907 110.998 85.9737 110.461 86.1739C109.919 86.3626 109.321 86.5403 108.683 86.7458C107.402 87.14 105.96 87.6457 104.318 88.0432C103.502 88.2579 102.647 88.4826 101.756 88.7169C100.864 88.9465 99.9199 89.1189 98.9514 89.3335C97.0173 89.7868 94.9179 90.096 92.7153 90.459C88.2938 91.0717 83.3941 91.49 78.2384 91.5111C73.0847 91.489 68.1859 91.0698 63.7653 90.4561C61.5632 90.0931 59.4639 89.7834 57.5297 89.3301C56.5607 89.1155 55.6172 88.9431 54.725 88.7131C53.8343 88.4788 52.9791 88.254 52.1628 88.0389C50.5215 87.6413 49.0791 87.1352 47.798 86.741C47.1603 86.5355 46.562 86.3573 46.0198 86.1686C45.483 85.9684 44.9913 85.7854 44.5481 85.6203C43.6751 85.2913 42.9928 85.034 42.515 84.8534C42.2927 84.767 42.1184 84.6988 41.9887 84.6484C41.8716 84.6013 41.8116 84.5749 41.8135 84.5711Z" fill="#263238"/>
<g opacity="0.3">
<path d="M41.96 84.6281C41.96 84.6281 46.1332 75.9724 78.3609 75.6051C110.589 75.2377 114.762 84.6281 114.762 84.6281C114.762 84.6281 82.2532 100.661 41.96 84.6281Z" fill="black"/>
</g>
<path d="M71.3516 16.7166C71.3516 16.7209 71.3142 16.7271 71.2407 16.7353C71.1524 16.7434 71.0453 16.7531 70.9152 16.7646C70.6295 16.7943 70.2055 16.803 69.6643 16.8683C68.5796 16.9667 67.0132 17.1804 65.1175 17.6217C63.2217 18.0601 61.0043 18.7703 58.6701 19.8521C56.3365 20.9296 53.9019 22.4072 51.6062 24.2871C49.3244 26.1852 47.4114 28.2956 45.9103 30.3824C44.4054 32.4693 43.2871 34.512 42.4972 36.2901C41.704 38.0677 41.1974 39.5644 40.8949 40.6112C40.7282 41.1303 40.6389 41.5447 40.5558 41.8198C40.5194 41.9456 40.4896 42.0489 40.4651 42.1339C40.443 42.2044 40.43 42.24 40.4257 42.239C40.4214 42.2381 40.4267 42.2006 40.4401 42.1281C40.4584 42.0412 40.48 41.936 40.5069 41.8078C40.5746 41.5288 40.6485 41.1096 40.8012 40.5848C41.0759 39.527 41.5589 38.0154 42.3359 36.2185C43.1094 34.4217 44.2187 32.3569 45.7235 30.2485C47.2246 28.1395 49.1472 26.0075 51.4477 24.0945C53.7622 22.1997 56.2193 20.7169 58.5746 19.6432C60.9303 18.5657 63.168 17.8685 65.0786 17.4498C66.9897 17.0282 68.5661 16.8404 69.6566 16.7713C70.2007 16.7209 70.6266 16.7276 70.9137 16.7142C71.0448 16.7122 71.1524 16.7108 71.2407 16.7094C71.3137 16.7098 71.3516 16.7122 71.3516 16.7166Z" fill="white"/>
<path d="M41.2081 53.6799C41.1793 53.6919 40.9935 53.3332 40.7702 52.721C40.5464 52.1097 40.2987 51.2396 40.1436 50.2557C39.9904 49.2713 39.9601 48.3667 39.9861 47.7165C40.0115 47.0654 40.0788 46.6673 40.11 46.6697C40.1887 46.6731 40.0797 48.2769 40.3909 50.2168C40.6876 52.1587 41.2816 53.6525 41.2081 53.6799Z" fill="white"/>
<path d="M33.1276 51.1991C33.1156 51.2091 33.0186 51.1213 32.8679 50.9402C32.7166 50.7597 32.5197 50.4778 32.3248 50.1014C31.9329 49.3576 31.593 48.1754 31.7644 46.8741C31.9382 45.5728 32.5749 44.5198 33.1468 43.9037C33.433 43.5911 33.6966 43.3702 33.8897 43.2353C34.0827 43.0999 34.1994 43.0403 34.208 43.0528C34.2359 43.0888 33.8032 43.3817 33.2808 44.0189C32.7598 44.646 32.1778 45.666 32.0122 46.9067C31.8489 48.147 32.1442 49.2836 32.4837 50.025C32.8222 50.7755 33.1636 51.1717 33.1276 51.1991Z" fill="white"/>
<path d="M77.0371 1.28688C77.0266 1.33394 76.5987 1.17644 75.9073 1.25903C75.2331 1.32962 74.2636 1.71856 73.6884 2.60161C73.1246 3.49234 73.1751 4.53577 73.3911 5.17825C73.6039 5.84186 73.9251 6.16502 73.8867 6.19431C73.8761 6.20439 73.7868 6.13525 73.6547 5.98159C73.5217 5.82841 73.3585 5.57824 73.2245 5.23731C72.9527 4.57419 72.8591 3.4472 73.478 2.46668C74.1119 1.49624 75.175 1.1121 75.8914 1.08328C76.2573 1.0636 76.5526 1.10777 76.7471 1.16491C76.9421 1.22062 77.0419 1.27295 77.0371 1.28688Z" fill="white"/>
<path d="M118.885 45.3771C118.832 45.4338 118.085 44.7207 116.957 44.1805C115.833 43.6283 114.811 43.4828 114.823 43.407C114.821 43.3455 115.896 43.3825 117.066 43.9558C118.24 44.519 118.934 45.3402 118.885 45.3771Z" fill="white"/>
<path d="M53.0423 129.439C53.0385 129.441 53.0178 129.41 52.9813 129.346C52.9386 129.27 52.8872 129.176 52.8243 129.063C52.6812 128.792 52.4868 128.425 52.2414 127.962C52.1161 127.72 51.9783 127.453 51.828 127.162C51.6887 126.862 51.5379 126.538 51.3766 126.19C51.0496 125.494 50.6818 124.699 50.3245 123.799C50.1406 123.351 49.9481 122.882 49.7478 122.394C49.5644 121.898 49.3738 121.383 49.1759 120.849C48.7635 119.788 48.4139 118.622 48.0019 117.41C47.2495 114.964 46.5109 112.247 45.8627 109.366C45.2284 106.48 44.7424 103.707 44.3597 101.177C44.0063 98.6429 43.7264 96.3553 43.5727 94.4259C43.4791 93.4632 43.4229 92.5897 43.3749 91.8229C43.3211 91.0565 43.2851 90.3958 43.2697 89.8546C43.2524 89.3312 43.2385 88.9159 43.2284 88.61C43.2265 88.4803 43.2251 88.3742 43.2241 88.2859C43.2246 88.2129 43.227 88.1754 43.2313 88.1754C43.2356 88.1754 43.2419 88.2124 43.25 88.2849C43.2577 88.3728 43.2673 88.4784 43.2793 88.6076C43.3009 88.913 43.3302 89.3269 43.3672 89.8493C43.3979 90.3891 43.4479 91.0479 43.5151 91.8128C43.5766 92.5777 43.6448 93.4492 43.7494 94.4096C43.9252 96.3337 44.2229 98.6155 44.5883 101.143C44.9825 103.666 45.4747 106.432 46.1071 109.311C46.7539 112.186 47.4838 114.897 48.2223 117.341C48.6271 118.551 48.968 119.716 49.3714 120.778C49.5634 121.312 49.7493 121.828 49.9279 122.324C50.1224 122.813 50.3096 123.283 50.4883 123.732C50.834 124.634 51.1898 125.431 51.5038 126.131C51.658 126.481 51.802 126.808 51.9355 127.11C52.0786 127.404 52.2097 127.673 52.3288 127.918C52.5559 128.389 52.7365 128.764 52.8695 129.039C52.9237 129.157 52.9679 129.254 53.0044 129.334C53.0332 129.402 53.0462 129.437 53.0423 129.439Z" fill="white"/>
<path d="M34.2338 90.2917C34.229 90.3604 32.6579 90.3047 30.7252 90.1674C28.792 90.0296 27.229 89.862 27.2338 89.7933C27.2386 89.7246 28.8093 89.7803 30.7429 89.9181C32.6757 90.0555 34.2391 90.2231 34.2338 90.2917Z" fill="white"/>
<path d="M16.1691 80.0426C16.1086 80.0757 15.2904 78.6827 14.3416 76.932C13.3927 75.1808 12.673 73.735 12.7339 73.7019C12.7944 73.6692 13.6127 75.0617 14.5615 76.8129C15.5098 78.5637 16.2296 80.01 16.1691 80.0426Z" fill="white"/>
<path d="M70.069 144.578C70.0661 144.595 69.8664 144.57 69.5062 144.51C69.1456 144.455 68.6304 144.334 68.0047 144.147C67.3771 143.965 66.6482 143.687 65.8631 143.324C65.0843 142.95 64.2526 142.482 63.4324 141.912C62.6176 141.333 61.8968 140.709 61.2803 140.102C60.6729 139.486 60.1653 138.894 59.7812 138.365C59.3941 137.84 59.1056 137.396 58.9317 137.075C58.7531 136.757 58.6619 136.578 58.6768 136.569C58.7176 136.545 59.119 137.244 59.9209 138.258C60.3185 138.767 60.8337 139.34 61.4416 139.939C62.0587 140.528 62.7732 141.138 63.576 141.708C64.3842 142.27 65.1995 142.736 65.9625 143.117C66.7313 143.487 67.4443 143.778 68.0585 143.979C69.2844 144.391 70.0781 144.532 70.069 144.578Z" fill="white"/>
<path d="M77.4359 122.365C77.4363 122.374 77.3206 122.385 77.0993 122.4C76.8779 122.404 76.5504 122.453 76.1293 122.428C75.2866 122.426 74.0583 122.29 72.6081 121.856C71.8821 121.643 71.1138 121.326 70.3148 120.934C69.5321 120.512 68.7081 120.027 67.9302 119.394C66.3586 118.157 64.8998 116.422 63.9582 114.299C63.0492 112.161 62.7774 109.91 62.9469 107.917C63.0156 106.916 63.224 105.983 63.4502 105.123C63.709 104.272 64.0014 103.493 64.3419 102.818C65.0146 101.462 65.7545 100.472 66.3284 99.8553C66.5977 99.5303 66.857 99.3243 67.0112 99.1658C67.1725 99.0136 67.2599 98.9372 67.2661 98.9435C67.2854 98.9627 66.9468 99.2839 66.4023 99.9192C65.8549 100.551 65.1457 101.547 64.5018 102.894C64.1757 103.566 63.8972 104.338 63.6504 105.18C63.4362 106.029 63.2384 106.95 63.1774 107.935C63.0228 109.898 63.2984 112.105 64.1882 114.2C65.1111 116.28 66.5358 117.988 68.0748 119.215C68.8363 119.843 69.644 120.326 70.4108 120.75C71.194 121.145 71.9479 121.468 72.6614 121.689C74.0861 122.138 75.2971 122.299 76.1331 122.331C76.9686 122.366 77.4349 122.338 77.4359 122.365Z" fill="white"/>
<path d="M19.3011 84.551C19.281 84.5914 18.9299 84.4123 18.324 84.2745C17.7209 84.1338 16.8498 84.0805 15.9288 84.2985C15.0088 84.5218 14.2568 84.965 13.7829 85.364C13.3056 85.7616 13.0737 86.0804 13.0377 86.0535C13.017 86.042 13.1995 85.6804 13.6657 85.2315C14.1262 84.7825 14.9051 84.2889 15.8702 84.0555C16.8359 83.826 17.754 83.9129 18.3681 84.1035C18.9871 84.2917 19.3141 84.5314 19.3011 84.551Z" fill="white"/>
<path d="M90.204 36.8104C90.204 36.8795 84.3083 36.9352 77.0375 36.9352C69.7637 36.9352 63.8695 36.8791 63.8695 36.8104C63.8695 36.7412 69.7637 36.6855 77.0375 36.6855C84.3083 36.6851 90.204 36.7412 90.204 36.8104Z" fill="white"/>
<path d="M67.7367 66.8341C67.7372 66.8427 67.6608 66.8547 67.5139 66.8701C67.3377 66.8854 67.1259 66.9037 66.8714 66.9253C66.5924 66.9493 66.2505 66.9714 65.8525 66.9776C65.4549 66.9863 65.0016 67.0088 64.5008 66.9935C63.4986 66.9911 62.3059 66.9224 60.9878 66.7827C59.6716 66.629 58.2306 66.3956 56.7401 66.0499C55.2511 65.6941 53.8576 65.2595 52.6106 64.8096C51.3684 64.3462 50.2702 63.8757 49.3727 63.4305C48.9175 63.2212 48.5223 62.9984 48.1704 62.8135C47.817 62.6306 47.5212 62.4582 47.282 62.3122C47.064 62.1792 46.883 62.0683 46.7318 61.9761C46.6074 61.8969 46.5445 61.8517 46.5488 61.8445C46.5531 61.8368 46.6247 61.8676 46.7572 61.9329C46.9142 62.0135 47.1029 62.1105 47.3291 62.2272C47.5749 62.3597 47.8765 62.5192 48.2347 62.6896C48.5915 62.862 48.9905 63.0728 49.4481 63.2711C50.3513 63.6937 51.45 64.1446 52.6889 64.5931C53.932 65.0281 55.3183 65.4531 56.7973 65.8065C58.2781 66.1498 59.7076 66.3885 61.0142 66.5536C62.3227 66.7049 63.5073 66.7913 64.5041 66.8168C65.0021 66.8437 65.4535 66.8331 65.8496 66.8379C66.2462 66.8451 66.5871 66.8369 66.8661 66.8283C67.1211 66.8249 67.3334 66.822 67.5096 66.8201C67.6584 66.8206 67.7362 66.8254 67.7367 66.8341Z" fill="white"/>
<path d="M106.065 88.4752C106.066 88.4795 106.027 88.4968 105.95 88.5275C105.859 88.5616 105.745 88.6044 105.605 88.6572C105.281 88.7724 104.834 88.9314 104.269 89.1326C103.689 89.3414 102.977 89.5854 102.137 89.8317C101.299 90.0828 100.352 90.3954 99.2831 90.6619C98.7501 90.8031 98.1927 90.9505 97.6116 91.1042C97.0297 91.2554 96.4165 91.3803 95.7855 91.5267C94.526 91.8321 93.1623 92.0717 91.7309 92.3421C88.8585 92.8266 85.6777 93.2323 82.3218 93.4494C78.9634 93.6448 75.7558 93.6318 72.8454 93.5022C71.3915 93.4095 70.0085 93.338 68.7212 93.1896C68.0773 93.1214 67.453 93.0724 66.8571 92.9937C66.2617 92.9125 65.6903 92.8343 65.1439 92.7598C64.0505 92.6263 63.0724 92.4314 62.21 92.2849C61.3466 92.1433 60.6095 91.9882 60.0088 91.8518C59.423 91.7212 58.9606 91.6185 58.6249 91.5435C58.4794 91.5085 58.3613 91.4802 58.2667 91.4571C58.1861 91.4365 58.1457 91.4235 58.1467 91.4192C58.1476 91.4149 58.1904 91.4192 58.2725 91.4321C58.369 91.4485 58.4881 91.4691 58.636 91.4941C58.9736 91.5575 59.4388 91.6453 60.028 91.7563C60.6311 91.8777 61.3696 92.0184 62.234 92.1471C63.0973 92.2801 64.075 92.4626 65.1679 92.5846C65.7133 92.6542 66.2848 92.7267 66.8792 92.8021C67.4746 92.876 68.0974 92.9193 68.7404 92.9831C70.0258 93.1224 71.4054 93.1857 72.856 93.2722C75.7592 93.3889 78.9572 93.3951 82.3059 93.2002C85.6523 92.9836 88.8248 92.586 91.6915 92.1154C93.12 91.8523 94.4818 91.6208 95.7404 91.3251C96.3709 91.1829 96.9836 91.0634 97.5655 90.9174C98.1466 90.7695 98.7045 90.6274 99.2375 90.492C100.307 90.237 101.256 89.9364 102.096 89.6987C102.938 89.4653 103.654 89.2353 104.238 89.0409C104.81 88.8584 105.261 88.7148 105.588 88.6106C105.731 88.5674 105.848 88.5328 105.941 88.5045C106.022 88.481 106.063 88.4714 106.065 88.4752Z" fill="white"/>
</svg>
