<svg width="20" height="20" viewBox="0 0 20 20" fill="none" xmlns="http://www.w3.org/2000/svg">
<path d="M10 0C4.3675 0 0 4.12739 0 9.69973C0 12.6147 1.195 15.1346 3.14 16.8745C3.3025 17.0195 3.4025 17.2245 3.4075 17.4445L3.4625 19.2245C3.4665 19.3554 3.50262 19.4834 3.56767 19.5972C3.63271 19.7109 3.72471 19.8069 3.83556 19.8768C3.94641 19.9467 4.07272 19.9882 4.2034 19.9978C4.33407 20.0075 4.46511 19.9848 4.585 19.932L6.57 19.057C6.7375 18.982 6.9275 18.9695 7.105 19.017C8.0175 19.267 8.9875 19.402 10 19.402C15.6325 19.402 20 15.2746 20 9.70223C20 4.12989 15.6325 0 10 0Z" fill="white"/>
<path d="M3.995 12.5372L6.9325 7.87728C7.043 7.70184 7.18868 7.55122 7.36034 7.43491C7.53199 7.31861 7.7259 7.23916 7.92981 7.20157C8.13372 7.16399 8.34321 7.16908 8.54505 7.21654C8.74689 7.264 8.9367 7.35278 9.1025 7.47729L11.44 9.22975C11.5444 9.30787 11.6713 9.34988 11.8017 9.34943C11.932 9.34898 12.0587 9.30609 12.1625 9.22725L15.3175 6.83231C15.7375 6.51232 16.2875 7.01731 16.0075 7.4648L13.0675 12.1222C12.957 12.2976 12.8113 12.4482 12.6397 12.5645C12.468 12.6808 12.2741 12.7603 12.0702 12.7979C11.8663 12.8355 11.6568 12.8304 11.4549 12.7829C11.2531 12.7355 11.0633 12.6467 10.8975 12.5222L8.56 10.7697C8.45565 10.6916 8.32869 10.6496 8.19833 10.65C8.06797 10.6505 7.94131 10.6934 7.8375 10.7722L4.6825 13.1671C4.2625 13.4871 3.7125 12.9846 3.995 12.5372Z" fill="black"/>
</svg>
