<svg width="14" height="14" viewBox="0 0 14 14" fill="none" xmlns="http://www.w3.org/2000/svg">
<path d="M5.22103 5.01615C5.22165 4.00299 5.6244 3.0315 6.34081 2.31509C7.05722 1.59868 8.0287 1.19593 9.04186 1.19531C11.1395 1.19531 12.8627 2.83973 12.8627 4.95781C12.8621 5.97097 12.4593 6.94246 11.7429 7.65887C11.0265 8.37528 10.055 8.77803 9.04186 8.77865C8.73211 8.77865 8.42645 8.73431 8.13653 8.65965C8.12959 8.84814 8.04987 9.02662 7.91412 9.15758C7.77837 9.28854 7.59715 9.3618 7.40853 9.36198H6.3877V10.3828C6.3877 10.7853 6.06103 11.112 5.65853 11.112H4.6377V11.8411C4.6377 12.1119 4.53014 12.3715 4.3387 12.563C4.14726 12.7544 3.8876 12.862 3.61686 12.862H2.15853C1.88779 12.862 1.62813 12.7544 1.43669 12.563C1.24525 12.3715 1.1377 12.1119 1.1377 11.8411V10.5741C1.1377 10.1483 1.30686 9.74056 1.60786 9.44015L5.24436 5.80248C5.2621 5.78378 5.27508 5.76108 5.28218 5.73631C5.28929 5.71153 5.29032 5.68541 5.2852 5.66015C5.24516 5.44775 5.22369 5.23227 5.22103 5.01615ZM10.646 4.08281C10.646 3.88943 10.5692 3.70396 10.4325 3.56721C10.2957 3.43047 10.1102 3.35365 9.91686 3.35365C9.72347 3.35365 9.53801 3.43047 9.40126 3.56721C9.26452 3.70396 9.1877 3.88943 9.1877 4.08281C9.1877 4.2762 9.26452 4.46167 9.40126 4.59841C9.53801 4.73516 9.72347 4.81198 9.91686 4.81198C10.1102 4.81198 10.2957 4.73516 10.4325 4.59841C10.5692 4.46167 10.646 4.2762 10.646 4.08281Z" fill="white"/>
</svg>
