<svg width="20" height="26" viewBox="0 0 20 26" fill="none" xmlns="http://www.w3.org/2000/svg">
<path d="M6.69521 0C7.99583 0.265119 9.10482 1.18151 9.80316 2.31019C10.501 3.43935 10.8228 4.7659 10.9496 6.08765C11.1946 8.64423 10.3084 11.4645 9.20232 13.7828C6.71202 12.3924 5.55164 9.29359 5.06175 7.68462C4.28704 5.14101 4.43209 0.074925 6.69521 0Z" fill="#455A64"/>
<path d="M12.5178 17.3885C11.8829 16.0485 12.1427 14.3761 13.0221 13.1821C13.9015 11.9881 15.3285 11.2595 16.7986 11.0645C17.4783 10.9742 18.2424 11.0165 18.7419 11.4862C19.2087 11.9252 19.3206 12.6524 19.1473 13.2695C18.9744 13.8867 18.5594 14.4083 18.0983 14.854C16.5182 16.3828 14.7084 17.5715 12.5178 17.3885Z" fill="#455A64"/>
<path d="M11.438 25.6135C11.4246 25.6135 11.415 25.4253 11.4044 25.0852C11.3943 24.7106 11.3813 24.2265 11.3655 23.6448C11.353 22.4369 11.3007 20.7141 11.8602 18.9126C12.4087 17.1177 13.4024 15.6711 14.325 14.8623C14.7813 14.4516 15.1987 14.1764 15.5003 14.0151C15.6477 13.9281 15.7726 13.8806 15.8533 13.8412C15.9354 13.8047 15.9801 13.7888 15.983 13.7946C16.0065 13.8321 15.2914 14.1231 14.4148 14.9588C13.5316 15.7772 12.5777 17.2027 12.0379 18.9673C11.4885 20.7319 11.5173 22.4355 11.4971 23.6439C11.4928 24.2519 11.4889 24.7447 11.4769 25.0847C11.4654 25.4257 11.45 25.614 11.438 25.6135Z" fill="#263238"/>
<path d="M6.92663 3.86758C6.93287 3.86614 6.95784 3.94154 6.99963 4.0861C7.04478 4.25036 7.10241 4.46073 7.17397 4.72152C7.3219 5.27434 7.52603 6.07643 7.76953 7.07014C8.25703 9.0571 8.89245 11.8116 9.52547 14.8691C10.1575 17.9276 10.6671 20.7084 11.0076 22.7256C11.1781 23.7342 11.3093 24.5517 11.3928 25.1175C11.4308 25.385 11.461 25.6011 11.485 25.7697C11.5043 25.9191 11.511 25.9983 11.5047 25.9993C11.4985 26.0002 11.4793 25.9234 11.4481 25.7759C11.4154 25.6088 11.3736 25.3946 11.3213 25.1295C11.2122 24.5445 11.0619 23.7366 10.878 22.7482C10.5043 20.7377 9.97454 17.9626 9.34296 14.9061C8.71042 11.8509 8.09613 9.09359 7.64129 7.09991C7.41796 6.11964 7.23545 5.31853 7.10337 4.73834C7.04574 4.47418 6.99915 4.26093 6.96313 4.09475C6.93287 3.9473 6.92038 3.86902 6.92663 3.86758Z" fill="#263238"/>
<path d="M9.20097 19.6756C8.08382 16.7555 5.47058 14.4549 2.43275 13.7162C1.659 13.5284 0.695063 13.5025 0.228223 14.147C-0.239578 14.793 0.0884606 15.7051 0.525043 16.3722C2.34198 19.1487 5.95662 20.6155 9.19473 19.8913" fill="#455A64"/>
<path d="M3.27358 16.014C3.27646 16.0015 3.44937 16.0375 3.76107 16.1144C3.91717 16.1514 4.10784 16.198 4.32205 16.2767C4.53578 16.355 4.78841 16.4218 5.04873 16.5438C5.31241 16.6576 5.6049 16.7757 5.8998 16.9414C6.2043 17.0898 6.51025 17.282 6.83156 17.4866C7.46218 17.9107 8.11873 18.438 8.71957 19.0807C9.31465 19.729 9.79302 20.4221 10.1652 21.0858C10.341 21.4235 10.5096 21.7438 10.6297 22.0608C10.769 22.3697 10.8607 22.6713 10.9481 22.945C11.0456 23.2159 11.0864 23.4743 11.1431 23.6948C11.2003 23.9157 11.2267 24.1102 11.2469 24.2697C11.2901 24.5876 11.3078 24.7629 11.2949 24.7649C11.2536 24.7721 11.1787 24.0641 10.8228 22.9859C10.7281 22.7183 10.6311 22.4235 10.4875 22.1218C10.3636 21.8121 10.1921 21.4999 10.0154 21.1699C9.64125 20.522 9.16768 19.8448 8.58317 19.2079C7.99242 18.5768 7.35123 18.0552 6.73598 17.6297C6.42235 17.4246 6.1241 17.2306 5.8268 17.0783C5.5391 16.9088 5.25381 16.7858 4.99638 16.6658C3.95655 16.208 3.26253 16.0534 3.27358 16.014Z" fill="#263238"/>
</svg>
