<svg width="22" height="22" viewBox="0 0 22 22" fill="none" xmlns="http://www.w3.org/2000/svg">
<path d="M10.9958 21.9455C17.0686 21.9455 21.9916 17.0329 21.9916 10.9728C21.9916 4.91267 17.0686 0 10.9958 0C4.923 0 0 4.91267 0 10.9728C0 17.0329 4.923 21.9455 10.9958 21.9455Z" fill="#E0E0E0"/>
<path d="M5.86454 13.7266L8.74267 13.4825L15.7745 14.6668L16.6045 19.9569L16.4868 20.5721C13.0871 22.459 9.28437 22.4124 6.06357 20.8118L5.86454 13.7266Z" fill="#455A64"/>
<path d="M14.2724 14.5752C14.2724 14.5752 16.4872 14.137 17.9192 16.1783C18.7957 17.4274 19.2256 18.2554 19.2256 18.2554C18.0824 19.4986 17.1515 20.4452 15.5607 20.9972L14.2724 14.5752Z" fill="#455A64"/>
<path d="M5.86367 13.7233C5.86367 13.7233 3.9611 13.9562 3.22232 15.5779C2.48355 17.2 2.31589 17.7099 2.31589 17.7099C3.30076 18.8933 4.55133 20.2943 6.08525 20.8199C6.08525 20.8199 6.43529 16.7338 6.48186 15.5779C6.53235 14.3116 6.58185 13.687 5.86367 13.7233Z" fill="#455A64"/>
<path d="M7.60387 3.32497C8.63139 2.07195 10.0114 1.35033 11.634 1.32337C12.5493 1.30817 12.9282 1.49789 13.5876 1.67535C14.2469 1.85282 14.8416 2.20578 15.2348 2.76268C15.7019 3.424 16.0941 4.16522 16.1824 4.96968C16.273 5.79621 16.3637 6.62763 16.3015 7.45661C16.2392 8.28558 16.0132 9.12044 15.524 9.79304L13.4106 10.1592C12.2434 10.1989 11.06 10.2372 9.92265 9.97148C8.78532 9.70577 7.68034 9.09495 7.07148 8.10077C6.22486 6.71931 6.57635 4.57799 7.60387 3.32497Z" fill="#263238"/>
<path d="M5.55729 9.44948C5.60975 8.97347 5.85976 8.50628 6.27302 8.26264C6.68628 8.019 7.26327 8.04449 7.60741 8.37784L7.9393 8.77297C8.45992 8.99406 8.78691 9.58479 8.72416 10.1456C8.66141 10.7069 8.22903 11.2016 7.68733 11.3663C7.14612 11.531 6.52548 11.3717 6.11173 10.9863C5.69798 10.601 5.49553 10.0108 5.55729 9.44948Z" fill="#263238"/>
<path d="M5.97454 10.8692C5.98974 10.8618 5.84316 10.727 5.86081 10.4496C5.87846 10.1795 6.07504 9.82551 6.34466 9.50147C6.61968 9.17547 6.94372 8.9529 7.19177 8.82397C7.43934 8.69112 7.60945 8.64308 7.60455 8.62543C7.60259 8.61514 7.42316 8.63867 7.15942 8.75828C6.89616 8.87349 6.55153 9.09556 6.26573 9.4348C6.12258 9.60295 6.00788 9.78139 5.92405 9.95346C5.83924 10.1245 5.7863 10.2976 5.78777 10.4476C5.78728 10.5976 5.83581 10.7143 5.88238 10.7819C5.92993 10.8501 5.97062 10.8736 5.97454 10.8692Z" fill="#455A64"/>
<path d="M13.3958 14.1915C13.3958 14.1915 13.3845 12.2315 13.3845 12.2345C13.3845 12.2345 15.1081 12.0452 15.5842 9.84068C15.8209 8.74453 15.8651 6.92824 15.8528 5.44089C15.842 4.10208 14.6998 2.27941 13.0433 2.27353L12.3075 2.18823L9.48964 3.30595C9.08275 3.32654 8.7592 3.6545 8.74498 4.0609L8.66017 13.4757L9.95095 15.2847C11.0211 16.7862 13.3869 16.0352 13.3958 14.1915Z" fill="#FFBE9D"/>
<path d="M12.2662 9.33169C12.2814 9.21551 12.3461 9.11256 12.429 9.04246C12.5942 8.90127 12.8354 8.88755 13.0118 9.00913C13.1883 9.1307 13.2898 9.38023 13.2565 9.6121C13.1574 9.7479 13.0055 9.84006 12.8378 9.85428C12.8118 9.85673 12.7853 9.8577 12.7594 9.85672C12.6319 9.85329 12.5025 9.81065 12.4054 9.71701C12.3074 9.62338 12.2471 9.47484 12.2662 9.33169Z" fill="#EB996E"/>
<path d="M14.8271 6.98785C14.8241 7.13884 14.6937 7.2609 14.5359 7.26041C14.378 7.26041 14.2525 7.13786 14.2555 6.98736C14.2584 6.83637 14.3888 6.7143 14.5467 6.7143C14.7045 6.71479 14.83 6.83735 14.8271 6.98785Z" fill="#263238"/>
<path d="M15.3015 6.28359C15.2642 6.31889 15.0564 6.14731 14.7485 6.13114C14.4416 6.11055 14.2073 6.25614 14.1759 6.21692C14.1602 6.19927 14.2004 6.13407 14.3024 6.06838C14.4029 6.00269 14.572 5.9424 14.7632 5.95367C14.9549 5.96544 15.1118 6.04436 15.2005 6.12133C15.2917 6.19928 15.3201 6.2679 15.3015 6.28359Z" fill="#263238"/>
<path d="M13.3638 8.5931C13.3633 8.57545 13.5565 8.55291 13.8682 8.53036C13.9472 8.52643 14.0227 8.51515 14.0388 8.46221C14.0604 8.40632 14.0325 8.32054 13.9991 8.2269C13.9359 8.03326 13.8692 7.83031 13.7996 7.61755C13.5241 6.75034 13.329 6.03902 13.3638 6.02823C13.3991 6.01745 13.6511 6.71161 13.9266 7.57882C13.9928 7.79256 14.056 7.9965 14.1158 8.19112C14.1408 8.28181 14.1859 8.38574 14.1398 8.50094C14.1153 8.5583 14.0555 8.59751 14.0045 8.6083C13.9535 8.62105 13.9089 8.61908 13.8702 8.61957C13.5574 8.61957 13.3638 8.61026 13.3638 8.5931Z" fill="#263238"/>
<path d="M13.3714 12.2342C13.3714 12.2342 11.8669 12.2484 10.4305 11.2763C10.4305 11.2763 11.1408 12.8612 13.3827 12.7749L13.3714 12.2342Z" fill="#EB996E"/>
<path d="M12.4535 8.755C12.5035 8.755 12.4859 9.08786 12.7589 9.33983C13.031 9.59279 13.3889 9.57466 13.3889 9.62123C13.3923 9.64231 13.306 9.68153 13.1555 9.67761C13.008 9.67467 12.7952 9.61534 12.6285 9.46141C12.4619 9.30699 12.3976 9.10943 12.3937 8.97216C12.3888 8.83245 12.431 8.75206 12.4535 8.755Z" fill="#263238"/>
<path d="M15.2297 5.12244C15.1738 5.19451 14.941 5.13176 14.665 5.1396C14.3885 5.13862 14.1566 5.20725 14.0998 5.13617C14.0748 5.10185 14.1086 5.03028 14.2081 4.96017C14.3061 4.89007 14.4723 4.82977 14.6625 4.82732C14.8527 4.82536 15.0194 4.88174 15.1184 4.94939C15.2189 5.01705 15.2542 5.08715 15.2297 5.12244Z" fill="#263238"/>
<path d="M11.4592 6.96754C11.4513 7.11804 11.5724 7.24942 11.7303 7.26069C11.8876 7.27197 12.0219 7.15921 12.0298 7.00822C12.0376 6.85772 11.9165 6.72635 11.7592 6.71507C11.6018 6.7038 11.4675 6.81704 11.4592 6.96754Z" fill="#263238"/>
<path d="M11.0801 6.16728C11.1149 6.20503 11.3345 6.04864 11.6424 6.05501C11.9503 6.05648 12.1733 6.21876 12.2072 6.1815C12.2238 6.16532 12.1885 6.09718 12.092 6.02414C11.9964 5.95109 11.8321 5.87902 11.6404 5.87657C11.4488 5.87412 11.286 5.94178 11.1919 6.01237C11.0963 6.08345 11.063 6.15012 11.0801 6.16728Z" fill="#263238"/>
<path d="M10.9166 5.49823C10.9759 5.56882 11.2146 5.50068 11.5004 5.50215C11.7862 5.4948 12.0269 5.55804 12.0843 5.48647C12.1093 5.45117 12.0725 5.38106 11.9676 5.31292C11.8647 5.24527 11.6911 5.1884 11.495 5.19037C11.2984 5.19282 11.1274 5.25263 11.0269 5.32273C10.9249 5.39283 10.8906 5.46392 10.9166 5.49823Z" fill="#263238"/>
<path d="M9.12708 7.80578C9.1359 7.64009 8.96531 7.23908 8.80305 7.20476C8.36919 7.1126 7.57844 7.10475 7.5103 8.21316C7.41667 9.72845 8.96089 9.50981 8.96628 9.46618C8.9702 9.43235 9.09717 8.37739 9.12708 7.80578Z" fill="#FFBE9D"/>
<path d="M8.58119 8.88626C8.57482 8.88086 8.55374 8.90341 8.50766 8.92106C8.46256 8.93822 8.38706 8.94753 8.3096 8.91321C8.15273 8.84458 8.03312 8.58231 8.04293 8.30828C8.04734 8.17003 8.08458 8.04061 8.14047 7.93472C8.1939 7.82687 8.27038 7.75383 8.35225 7.74451C8.43363 7.73078 8.48804 7.78275 8.50373 7.82638C8.52138 7.87001 8.51011 7.89991 8.51796 7.90285C8.52188 7.90678 8.55226 7.87932 8.54393 7.81608C8.53951 7.78569 8.52383 7.74893 8.49001 7.71755C8.4552 7.68569 8.40275 7.66755 8.34588 7.67C8.22822 7.67098 8.11646 7.77196 8.05518 7.88815C7.98753 8.00433 7.94242 8.14993 7.93752 8.30484C7.9282 8.61075 8.06743 8.90635 8.28313 8.98283C8.38804 9.01714 8.47922 8.99067 8.52775 8.95733C8.57629 8.92302 8.58659 8.88969 8.58119 8.88626Z" fill="#EB996E"/>
<path d="M8.73742 7.20674L9.12324 7.60628C10.7895 6.01451 14.0461 2.02945 13.8642 2.26721C13.8642 2.26721 12.723 1.79855 11.4837 2.00935C10.2449 2.22015 7.89423 2.83882 7.93051 4.29724C7.96679 5.75518 8.73742 7.20674 8.73742 7.20674Z" fill="#263238"/>
<path d="M6.53022 6.87325C6.52777 6.87226 6.53561 6.84236 6.55326 6.78549C6.5714 6.72912 6.60426 6.64676 6.65672 6.54675C6.7626 6.34723 6.96457 6.07712 7.29155 5.83396C7.61363 5.58444 8.06072 5.3805 8.56957 5.22069C9.07745 5.05548 9.65053 4.92753 10.2123 4.68634C10.7781 4.45446 11.2825 4.15542 11.7129 3.84756C12.1419 3.53627 12.4958 3.2137 12.7718 2.92349C13.0483 2.63278 13.2488 2.37737 13.3841 2.19844C13.4464 2.11314 13.4969 2.04402 13.5366 1.9896C13.5719 1.94205 13.5915 1.91753 13.5939 1.919C13.5964 1.92047 13.5812 1.94744 13.5498 1.99794C13.5179 2.04794 13.4733 2.12294 13.4091 2.2156C13.2807 2.4009 13.0856 2.66317 12.812 2.96074C12.539 3.25782 12.1855 3.58774 11.7551 3.90492C11.3232 4.21916 10.8143 4.5231 10.2422 4.75743C9.67259 5.00107 9.09608 5.12803 8.59115 5.28834C8.08425 5.44374 7.64452 5.63837 7.3244 5.8776C6.99938 6.11046 6.79544 6.36929 6.68318 6.56097C6.5719 6.7551 6.53807 6.87619 6.53022 6.87325Z" fill="#455A64"/>
<path d="M6.97191 7.11259C6.97191 7.11259 6.95671 6.98857 7.03074 6.7812C7.10133 6.5758 7.28124 6.29637 7.60136 6.06744C7.91854 5.83115 8.37103 5.68506 8.86861 5.57181C9.36815 5.46151 9.91035 5.32131 10.4432 5.07325C10.9756 4.82716 11.4531 4.5291 11.8472 4.20849C12.2438 3.88984 12.5635 3.55943 12.8096 3.26431C13.0591 2.97116 13.2262 2.70692 13.3464 2.52799C13.3988 2.44171 13.441 2.37161 13.4753 2.31572C13.5057 2.26768 13.5223 2.24267 13.5248 2.24415C13.5272 2.24562 13.5145 2.27258 13.489 2.32308C13.4581 2.38092 13.4199 2.45396 13.3723 2.54318C13.2601 2.72751 13.0983 2.99812 12.8522 3.29863C12.609 3.60061 12.2904 3.93837 11.8923 4.26339C11.4962 4.59087 11.0143 4.89432 10.4756 5.14335C9.9373 5.39435 9.38285 5.53553 8.88478 5.64093C8.38818 5.75025 7.94452 5.88801 7.63323 6.11155C7.31752 6.32872 7.13663 6.59394 7.05918 6.79101C6.97829 6.99053 6.9827 7.11407 6.97191 7.11259Z" fill="#455A64"/>
<path d="M6.08259 20.807C6.05465 20.807 6.0321 20.1579 6.0321 19.3579C6.0321 18.5574 6.05465 17.9088 6.08259 17.9088C6.11053 17.9088 6.13357 18.5574 6.13357 19.3579C6.13308 20.1579 6.11053 20.807 6.08259 20.807Z" fill="#263238"/>
<path d="M16.4876 20.6018C16.4724 20.6004 16.4866 20.4033 16.5047 20.0871C16.5194 19.7709 16.5395 19.3321 16.4621 18.8586C16.3822 18.3855 16.2223 17.9747 16.1091 17.6781C15.9919 17.3825 15.9179 17.1991 15.9316 17.1928C15.9434 17.1879 16.041 17.3604 16.1753 17.6511C16.3062 17.9423 16.4797 18.3561 16.5621 18.8429C16.6415 19.3302 16.6087 19.7768 16.5758 20.093C16.5395 20.4096 16.5003 20.6028 16.4876 20.6018Z" fill="#263238"/>
</svg>
