<svg width="18" height="19" viewBox="0 0 18 19" fill="none" xmlns="http://www.w3.org/2000/svg">
<path d="M11.7719 14.4622H6.00704C5.59649 14.4622 5.26318 14.1294 5.26318 13.7184C5.26318 13.3073 5.596 12.9745 6.00704 12.9745H11.7719C12.1829 12.9745 12.5157 13.3073 12.5157 13.7184C12.5157 14.1289 12.1829 14.4622 11.7719 14.4622Z" fill="#263238"/>
<path d="M9.21598 0.884985H8.70965V3.44605H9.21598V0.884985Z" fill="#263238"/>
<path d="M1.48825 11.1283C2.31019 11.1283 2.97649 10.462 2.97649 9.64006C2.97649 8.81812 2.31019 8.15181 1.48825 8.15181C0.666317 8.15181 0 8.81812 0 9.64006C0 10.462 0.666317 11.1283 1.48825 11.1283Z" fill="#FF725E"/>
<path d="M16.5121 11.0289C17.3341 11.0289 18.0004 10.3625 18.0004 9.54061C18.0004 8.71867 17.3341 8.05237 16.5121 8.05237C15.6902 8.05237 15.0239 8.71867 15.0239 9.54061C15.0239 10.3625 15.6902 11.0289 16.5121 11.0289Z" fill="#FF725E"/>
<path d="M9.18511 2.91121C9.18511 2.91121 15.2359 2.83839 16.1938 8.07926C17.1518 13.3201 12.0345 13.4179 10.5629 13.5171C9.89576 13.5621 8.46764 13.567 7.20813 13.545C4.41883 13.4966 2.44819 12.9565 1.77762 10.3691C1.69942 10.0675 1.64663 9.75763 1.62708 9.44239C1.44869 6.60568 3.36898 2.77192 9.18511 2.91121Z" fill="#FF725E"/>
<path d="M4.79455 10.8921L13.5852 11.0294C14.5065 11.0441 15.265 10.3085 15.2797 9.38725C15.2939 8.46595 14.5588 7.70741 13.6375 7.69274L4.84684 7.5554C3.92555 7.54074 3.16702 8.27632 3.15235 9.19761C3.13769 10.1189 3.87325 10.8774 4.79455 10.8921Z" fill="#263238"/>
<path d="M11.7614 9.20601C11.8181 9.49633 12.0997 9.68547 12.39 9.62878C12.6803 9.57208 12.8694 9.29057 12.8128 9.00026C12.7561 8.70994 12.4745 8.5208 12.1842 8.57749C11.8939 8.63468 11.7048 8.9157 11.7614 9.20601Z" fill="white"/>
<path d="M5.61925 9.10858C5.67595 9.3989 5.95747 9.58804 6.24779 9.53135C6.53811 9.47465 6.72725 9.19313 6.67056 8.90281C6.61386 8.61249 6.33235 8.42335 6.04203 8.48004C5.75172 8.53723 5.56256 8.81875 5.61925 9.10858Z" fill="white"/>
<path d="M9.79751 0.83479C9.79751 1.29568 9.42362 1.66958 8.96273 1.66958C8.50184 1.66958 8.12794 1.29568 8.12794 0.83479C8.12794 0.373898 8.50184 0 8.96273 0C9.42362 0.00048875 9.79751 0.373898 9.79751 0.83479Z" fill="#FF725E"/>
<path d="M10.223 8.95933C10.2377 8.95688 10.2612 9.0004 10.2763 9.08739C10.292 9.1739 10.2895 9.30537 10.2441 9.45883C10.1996 9.6123 10.1048 9.78483 9.95031 9.93537C9.79782 10.0849 9.57691 10.2081 9.32031 10.234C9.06323 10.255 8.82375 10.1739 8.64682 10.0541C8.46794 9.9344 8.34331 9.7819 8.27195 9.6387C8.19961 9.49598 8.17322 9.36696 8.17273 9.27898C8.17175 9.19101 8.18739 9.14359 8.20206 9.1431C8.24018 9.14017 8.25239 9.32834 8.41221 9.55414C8.48993 9.66656 8.60723 9.78337 8.76021 9.87281C8.91221 9.96274 9.1038 10.0185 9.29979 10.0028C9.49529 9.98278 9.6732 9.89334 9.80663 9.7775C9.94104 9.66167 10.0349 9.52531 10.0911 9.40068C10.2069 9.15044 10.1849 8.96324 10.223 8.95933Z" fill="white"/>
<path d="M16.1784 7.90721C16.1813 7.90623 16.1984 7.95218 16.2263 8.03673C16.241 8.07877 16.2571 8.13057 16.2717 8.19215C16.2874 8.25325 16.3074 8.32265 16.3216 8.40085C16.3553 8.55627 16.3822 8.74395 16.3988 8.95411C16.412 9.16427 16.4135 9.39595 16.3929 9.63837C16.3705 9.8803 16.3284 10.1085 16.2781 10.3128C16.2253 10.5166 16.1657 10.697 16.1051 10.8436C16.0777 10.9184 16.0455 10.9829 16.0196 11.0401C15.9941 11.0978 15.9687 11.1462 15.9472 11.1848C15.9052 11.263 15.8803 11.305 15.8773 11.3035C15.8744 11.3021 15.8939 11.2566 15.9311 11.1765C15.9501 11.1364 15.9731 11.0875 15.9961 11.0289C16.0196 10.9707 16.0494 10.9057 16.0748 10.8309C16.131 10.6838 16.1867 10.5039 16.237 10.3016C16.2844 10.0988 16.3245 9.87248 16.347 9.63299C16.367 9.3935 16.3675 9.16379 16.3563 8.95559C16.3426 8.74738 16.3191 8.56117 16.2898 8.40574C16.2781 8.32754 16.26 8.25863 16.2473 8.19705C16.2351 8.13546 16.2214 8.08316 16.2092 8.04064C16.1867 7.95609 16.1755 7.90819 16.1784 7.90721Z" fill="#263238"/>
<path d="M1.84553 7.93903C1.8426 7.93805 1.82548 7.984 1.79762 8.06855C1.78296 8.11059 1.76683 8.16239 1.75168 8.22397C1.73604 8.28507 1.71601 8.35447 1.70184 8.43267C1.66811 8.58809 1.64124 8.77577 1.62462 8.98593C1.61142 9.19609 1.60995 9.42776 1.63048 9.67018C1.65296 9.91211 1.69499 10.1404 1.74533 10.3447C1.79811 10.5485 1.85774 10.7288 1.91835 10.8754C1.94572 10.9502 1.97797 11.0147 2.00387 11.0719C2.02929 11.1296 2.05471 11.178 2.07621 11.2166C2.11825 11.2948 2.14318 11.3373 2.14611 11.3354C2.14904 11.3339 2.12948 11.2884 2.09234 11.2083C2.07328 11.1682 2.0508 11.1193 2.02734 11.0612C2.00388 11.003 1.97407 10.938 1.94866 10.8632C1.89245 10.7156 1.83673 10.5362 1.78639 10.3339C1.73898 10.1311 1.6989 9.90479 1.67642 9.6653C1.65638 9.42581 1.65589 9.19609 1.66713 8.98788C1.68081 8.78017 1.70428 8.59347 1.73361 8.43853C1.74534 8.36033 1.76342 8.29142 1.77613 8.22983C1.78835 8.16825 1.80202 8.11595 1.81424 8.07343C1.8377 7.9879 1.84846 7.94001 1.84553 7.93903Z" fill="#263238"/>
<path d="M3.15214 17.394C3.15214 17.394 4.9478 15.6374 8.70923 15.6374C12.4707 15.6374 14.3924 17.394 14.3924 17.394C14.3924 17.394 9.15302 20.9345 3.15214 17.394Z" fill="#FF725E"/>
</svg>
