<svg width="16" height="16" viewBox="0 0 16 16" fill="none" xmlns="http://www.w3.org/2000/svg">
<path d="M5.33396 7.9955C5.33396 6.52362 6.52754 5.33012 8.0003 5.33012C9.47305 5.33012 10.6673 6.52362 10.6673 7.9955C10.6673 9.46737 9.47305 10.6609 8.0003 10.6609C6.52754 10.6609 5.33396 9.46737 5.33396 7.9955ZM3.89224 7.9955C3.89224 10.263 5.73141 12.1011 8.0003 12.1011C10.2692 12.1011 12.1083 10.263 12.1083 7.9955C12.1083 5.72797 10.2692 3.88991 8.0003 3.88991C5.73141 3.88991 3.89224 5.72797 3.89224 7.9955ZM11.3109 3.72712C11.3109 3.91688 11.3671 4.1024 11.4725 4.26023C11.578 4.41805 11.7278 4.54109 11.9032 4.61378C12.0786 4.68647 12.2717 4.70555 12.4579 4.6686C12.6441 4.63165 12.8152 4.54034 12.9496 4.40621C13.0839 4.27208 13.1754 4.10116 13.2125 3.91506C13.2496 3.72896 13.2307 3.53603 13.1581 3.36069C13.0855 3.18534 12.9625 3.03544 12.8047 2.92995C12.6468 2.82446 12.4612 2.76812 12.2714 2.76804H12.271C12.0165 2.76816 11.7724 2.86923 11.5924 3.04906C11.4124 3.22888 11.3112 3.47276 11.3109 3.72712ZM4.76818 14.5036C3.98818 14.4681 3.56423 14.3383 3.28249 14.2286C2.90897 14.0833 2.64247 13.9102 2.36226 13.6305C2.08206 13.3509 1.90861 13.0848 1.76384 12.7115C1.65401 12.4301 1.52409 12.0062 1.48863 11.2267C1.44985 10.3839 1.4421 10.1307 1.4421 7.99556C1.4421 5.86038 1.45049 5.60791 1.48863 4.76442C1.52415 3.98489 1.65504 3.5619 1.76384 3.27962C1.90925 2.90633 2.08244 2.63999 2.36226 2.35995C2.64208 2.07992 2.90833 1.90657 3.28249 1.76189C3.5641 1.65213 3.98818 1.52228 4.76818 1.48684C5.61147 1.44808 5.86479 1.44034 8.0003 1.44034C10.1358 1.44034 10.3894 1.44872 11.2334 1.48684C12.0134 1.52234 12.4366 1.65315 12.7191 1.76189C13.0926 1.90657 13.3591 2.0803 13.6393 2.35995C13.9195 2.6396 14.0923 2.90633 14.2377 3.27962C14.3475 3.56107 14.4775 3.98489 14.5129 4.76442C14.5517 5.60791 14.5594 5.86038 14.5594 7.99556C14.5594 10.1307 14.5517 10.3832 14.5129 11.2267C14.4774 12.0062 14.3468 12.4299 14.2377 12.7115C14.0923 13.0848 13.9191 13.3511 13.6393 13.6305C13.3595 13.9099 13.0926 14.0833 12.7191 14.2286C12.4375 14.3384 12.0134 14.4682 11.2334 14.5036C10.3901 14.5424 10.1368 14.5501 8.0003 14.5501C5.86383 14.5501 5.61122 14.5424 4.76818 14.5036ZM4.70193 0.0484207C3.85025 0.0871829 3.26828 0.222147 2.76004 0.419796C2.23368 0.623905 1.7881 0.897734 1.34283 1.34203C0.897569 1.78632 0.624279 2.23234 0.420047 2.75838C0.22228 3.26664 0.0872352 3.84794 0.0484498 4.69911C0.00902434 5.55163 0 5.82418 0 7.9955C0 10.1668 0.00902434 10.4394 0.0484498 11.2919C0.0872352 12.1431 0.22228 12.7244 0.420047 13.2326C0.624279 13.7583 0.897633 14.2049 1.34283 14.649C1.78803 15.0931 2.23368 15.3665 2.76004 15.5712C3.26924 15.7688 3.85025 15.9038 4.70193 15.9426C5.55541 15.9813 5.82767 15.991 8.0003 15.991C10.1729 15.991 10.4456 15.982 11.2987 15.9426C12.1504 15.9038 12.732 15.7688 13.2406 15.5712C13.7666 15.3665 14.2125 15.0933 14.6578 14.649C15.103 14.2047 15.3757 13.7583 15.5805 13.2326C15.7783 12.7244 15.914 12.143 15.9521 11.2919C15.9909 10.4387 16 10.1668 16 7.9955C16 5.82418 15.9909 5.55163 15.9521 4.69911C15.9134 3.84788 15.7783 3.26632 15.5805 2.75838C15.3757 2.23266 15.1023 1.78703 14.6578 1.34203C14.2132 0.897031 13.7666 0.623905 13.2412 0.419796C12.732 0.222147 12.1503 0.0865433 11.2993 0.0484207C10.4463 0.00965856 10.1736 0 8.00094 0C5.82831 0 5.55541 0.00901892 4.70193 0.0484207Z" fill="white"/>
<path d="M5.33396 7.9955C5.33396 6.52362 6.52754 5.33012 8.0003 5.33012C9.47305 5.33012 10.6673 6.52362 10.6673 7.9955C10.6673 9.46737 9.47305 10.6609 8.0003 10.6609C6.52754 10.6609 5.33396 9.46737 5.33396 7.9955ZM3.89224 7.9955C3.89224 10.263 5.73141 12.1011 8.0003 12.1011C10.2692 12.1011 12.1083 10.263 12.1083 7.9955C12.1083 5.72797 10.2692 3.88991 8.0003 3.88991C5.73141 3.88991 3.89224 5.72797 3.89224 7.9955ZM11.3109 3.72712C11.3109 3.91688 11.3671 4.1024 11.4725 4.26023C11.578 4.41805 11.7278 4.54109 11.9032 4.61378C12.0786 4.68647 12.2717 4.70555 12.4579 4.6686C12.6441 4.63165 12.8152 4.54034 12.9496 4.40621C13.0839 4.27208 13.1754 4.10116 13.2125 3.91506C13.2496 3.72896 13.2307 3.53603 13.1581 3.36069C13.0855 3.18534 12.9625 3.03544 12.8047 2.92995C12.6468 2.82446 12.4612 2.76812 12.2714 2.76804H12.271C12.0165 2.76816 11.7724 2.86923 11.5924 3.04906C11.4124 3.22888 11.3112 3.47276 11.3109 3.72712ZM4.76818 14.5036C3.98818 14.4681 3.56423 14.3383 3.28249 14.2286C2.90897 14.0833 2.64247 13.9102 2.36226 13.6305C2.08206 13.3509 1.90861 13.0848 1.76384 12.7115C1.65401 12.4301 1.52409 12.0062 1.48863 11.2267C1.44985 10.3839 1.4421 10.1307 1.4421 7.99556C1.4421 5.86038 1.45049 5.60791 1.48863 4.76442C1.52415 3.98489 1.65504 3.5619 1.76384 3.27962C1.90925 2.90633 2.08244 2.63999 2.36226 2.35995C2.64208 2.07992 2.90833 1.90657 3.28249 1.76189C3.5641 1.65213 3.98818 1.52228 4.76818 1.48684C5.61147 1.44808 5.86479 1.44034 8.0003 1.44034C10.1358 1.44034 10.3894 1.44872 11.2334 1.48684C12.0134 1.52234 12.4366 1.65315 12.7191 1.76189C13.0926 1.90657 13.3591 2.0803 13.6393 2.35995C13.9195 2.6396 14.0923 2.90633 14.2377 3.27962C14.3475 3.56107 14.4775 3.98489 14.5129 4.76442C14.5517 5.60791 14.5594 5.86038 14.5594 7.99556C14.5594 10.1307 14.5517 10.3832 14.5129 11.2267C14.4774 12.0062 14.3468 12.4299 14.2377 12.7115C14.0923 13.0848 13.9191 13.3511 13.6393 13.6305C13.3595 13.9099 13.0926 14.0833 12.7191 14.2286C12.4375 14.3384 12.0134 14.4682 11.2334 14.5036C10.3901 14.5424 10.1368 14.5501 8.0003 14.5501C5.86383 14.5501 5.61122 14.5424 4.76818 14.5036ZM4.70193 0.0484207C3.85025 0.0871829 3.26828 0.222147 2.76004 0.419796C2.23368 0.623905 1.7881 0.897734 1.34283 1.34203C0.897569 1.78632 0.624279 2.23234 0.420047 2.75838C0.22228 3.26664 0.0872352 3.84794 0.0484498 4.69911C0.00902434 5.55163 0 5.82418 0 7.9955C0 10.1668 0.00902434 10.4394 0.0484498 11.2919C0.0872352 12.1431 0.22228 12.7244 0.420047 13.2326C0.624279 13.7583 0.897633 14.2049 1.34283 14.649C1.78803 15.0931 2.23368 15.3665 2.76004 15.5712C3.26924 15.7688 3.85025 15.9038 4.70193 15.9426C5.55541 15.9813 5.82767 15.991 8.0003 15.991C10.1729 15.991 10.4456 15.982 11.2987 15.9426C12.1504 15.9038 12.732 15.7688 13.2406 15.5712C13.7666 15.3665 14.2125 15.0933 14.6578 14.649C15.103 14.2047 15.3757 13.7583 15.5805 13.2326C15.7783 12.7244 15.914 12.143 15.9521 11.2919C15.9909 10.4387 16 10.1668 16 7.9955C16 5.82418 15.9909 5.55163 15.9521 4.69911C15.9134 3.84788 15.7783 3.26632 15.5805 2.75838C15.3757 2.23266 15.1023 1.78703 14.6578 1.34203C14.2132 0.897031 13.7666 0.623905 13.2412 0.419796C12.732 0.222147 12.1503 0.0865433 11.2993 0.0484207C10.4463 0.00965856 10.1736 0 8.00094 0C5.82831 0 5.55541 0.00901892 4.70193 0.0484207Z" fill="white"/>
</svg>
