<svg width="18" height="19" viewBox="0 0 18 19" fill="none" xmlns="http://www.w3.org/2000/svg">
<path d="M11.7719 14.4642H6.00704C5.59649 14.4642 5.26318 14.1314 5.26318 13.7203C5.26318 13.3093 5.596 12.9765 6.00704 12.9765H11.7719C12.1829 12.9765 12.5157 13.3093 12.5157 13.7203C12.5157 14.1309 12.1829 14.4642 11.7719 14.4642Z" fill="#263238"/>
<path d="M9.21698 0.884985H8.71064V3.44604H9.21698V0.884985Z" fill="#263238"/>
<path d="M1.48825 11.1263C2.31019 11.1263 2.97649 10.46 2.97649 9.63805C2.97649 8.81612 2.31019 8.14982 1.48825 8.14982C0.666317 8.14982 0 8.81612 0 9.63805C0 10.46 0.666317 11.1263 1.48825 11.1263Z" fill="#FF725E"/>
<path d="M16.5121 11.0289C17.3341 11.0289 18.0004 10.3626 18.0004 9.54062C18.0004 8.71869 17.3341 8.05237 16.5121 8.05237C15.6902 8.05237 15.0239 8.71869 15.0239 9.54062C15.0239 10.3626 15.6902 11.0289 16.5121 11.0289Z" fill="#FF725E"/>
<path d="M9.18511 2.91121C9.18511 2.91121 15.2359 2.83839 16.1938 8.07926C17.1518 13.3201 12.0345 13.4179 10.5629 13.5171C9.89576 13.5621 8.46764 13.5669 7.20813 13.545C4.41883 13.4966 2.44819 12.9565 1.77762 10.3691C1.69942 10.0675 1.64663 9.75763 1.62708 9.44239C1.44869 6.60568 3.36898 2.77192 9.18511 2.91121Z" fill="#FF725E"/>
<path d="M4.79455 10.8921L13.5852 11.0294C14.5065 11.0436 15.265 10.3085 15.2797 9.38722C15.2939 8.46592 14.5588 7.70739 13.6375 7.69272L4.84684 7.55539C3.92555 7.54122 3.16702 8.27629 3.15235 9.19758C3.13769 10.1194 3.87325 10.8779 4.79455 10.8921Z" fill="#263238"/>
<path d="M11.7605 9.20569C11.8171 9.49601 12.0987 9.68515 12.389 9.62846C12.6793 9.57176 12.8685 9.29024 12.8118 8.99992C12.7551 8.7096 12.4736 8.52046 12.1832 8.57765C11.8929 8.63434 11.7038 8.91538 11.7605 9.20569Z" fill="white"/>
<path d="M5.61925 9.10857C5.67595 9.39889 5.95747 9.58805 6.24779 9.53135C6.53811 9.47466 6.72725 9.19313 6.67056 8.90282C6.61386 8.6125 6.33235 8.42335 6.04203 8.48004C5.75172 8.53723 5.56256 8.81875 5.61925 9.10857Z" fill="white"/>
<path d="M9.79751 0.834789C9.79751 1.29568 9.42362 1.66957 8.96273 1.66957C8.50184 1.66957 8.12794 1.29568 8.12794 0.834789C8.12794 0.373898 8.50184 0 8.96273 0C9.42362 0.00048875 9.79751 0.373898 9.79751 0.834789Z" fill="#FF725E"/>
<path d="M10.223 8.95933C10.2377 8.95688 10.2612 9.00087 10.2763 9.08738C10.292 9.17389 10.2895 9.30536 10.2441 9.45883C10.1996 9.6123 10.1048 9.78532 9.95031 9.93537C9.79782 10.0849 9.57691 10.2081 9.32031 10.234C9.06323 10.255 8.82375 10.1739 8.64682 10.0541C8.46794 9.93438 8.34331 9.78189 8.27195 9.63868C8.19961 9.49597 8.17322 9.36694 8.17273 9.27897C8.17175 9.19099 8.18739 9.14359 8.20206 9.1431C8.24018 9.14017 8.25239 9.32832 8.41221 9.55413C8.48993 9.66654 8.60723 9.78335 8.76021 9.8728C8.91221 9.96273 9.1038 10.0184 9.29979 10.0028C9.49529 9.98276 9.6732 9.89332 9.80663 9.77749C9.94104 9.66165 10.0349 9.52529 10.0911 9.40066C10.2069 9.15042 10.1849 8.96324 10.223 8.95933Z" fill="white"/>
<path d="M16.1794 7.90721C16.1823 7.90623 16.1994 7.95217 16.2273 8.03673C16.242 8.07876 16.2581 8.13056 16.2727 8.19215C16.2884 8.25324 16.3084 8.32264 16.3226 8.40084C16.3563 8.55627 16.3832 8.74395 16.3998 8.95411C16.413 9.16427 16.4145 9.39594 16.3939 9.63836C16.3715 9.88029 16.3294 10.1085 16.2791 10.3128C16.2263 10.5166 16.1667 10.697 16.1061 10.8436C16.0787 10.9184 16.0465 10.9829 16.0205 11.0401C15.9951 11.0978 15.9697 11.1462 15.9482 11.1848C15.9062 11.263 15.8812 11.3055 15.8783 11.3035C15.8754 11.3021 15.8949 11.2566 15.9321 11.1765C15.9511 11.1364 15.9741 11.0875 15.9971 11.0293C16.0205 10.9712 16.0504 10.9062 16.0758 10.8314C16.132 10.6838 16.1877 10.5044 16.238 10.3021C16.2854 10.0993 16.3255 9.87295 16.348 9.63347C16.368 9.39398 16.3685 9.16427 16.3573 8.95606C16.3436 8.74835 16.3201 8.56164 16.2908 8.4067C16.2791 8.3285 16.261 8.2596 16.2483 8.19801C16.2361 8.13643 16.2224 8.08413 16.2102 8.04161C16.1877 7.95608 16.1764 7.90819 16.1794 7.90721Z" fill="#263238"/>
<path d="M1.84354 7.94102C1.84061 7.94004 1.82349 7.98598 1.79563 8.07053C1.78097 8.11257 1.76485 8.16438 1.74969 8.22596C1.73405 8.28706 1.71402 8.35645 1.69985 8.43465C1.66612 8.59007 1.63925 8.77776 1.62263 8.98793C1.60943 9.19809 1.60796 9.42975 1.62849 9.67217C1.65097 9.91411 1.693 10.1424 1.74334 10.3467C1.79613 10.5505 1.85576 10.7308 1.91636 10.8774C1.94373 10.9522 1.97598 11.0167 2.00189 11.0739C2.0273 11.1316 2.05272 11.18 2.07423 11.2186C2.11626 11.2968 2.14119 11.3388 2.14412 11.3373C2.14705 11.3359 2.12749 11.2904 2.09035 11.2103C2.07129 11.1702 2.04881 11.1213 2.02535 11.0632C2.00189 11.005 1.97208 10.94 1.94667 10.8652C1.89046 10.7181 1.83474 10.5382 1.7844 10.3359C1.73699 10.1331 1.69691 9.90677 1.67443 9.66728C1.65439 9.42779 1.6539 9.19809 1.66514 8.98988C1.67882 8.78167 1.70229 8.59545 1.73162 8.44003C1.74335 8.36183 1.76143 8.29291 1.77414 8.23133C1.78636 8.16975 1.80003 8.11746 1.81225 8.07493C1.83571 7.98989 1.84648 7.94199 1.84354 7.94102Z" fill="#263238"/>
<path d="M3.15214 17.394C3.15214 17.394 4.9478 15.6374 8.70923 15.6374C12.4707 15.6374 14.3924 17.394 14.3924 17.394C14.3924 17.394 9.15302 20.9345 3.15214 17.394Z" fill="#FF725E"/>
</svg>
