<svg width="14" height="14" viewBox="0 0 14 14" fill="none" xmlns="http://www.w3.org/2000/svg">
<path fill-rule="evenodd" clip-rule="evenodd" d="M11.9 2.0125C10.5875 0.7 8.8375 0 7 0C3.15 0 0 3.15 0 7C0 8.225 0.350005 9.45 0.962505 10.5L0 14L3.67501 13.0375C4.72501 13.5625 5.8625 13.9125 7 13.9125C10.85 13.9125 14 10.7625 14 6.9125C14 5.075 13.2125 3.325 11.9 2.0125ZM7 12.775C5.95 12.775 4.90001 12.5125 4.02501 11.9875L3.84999 11.9L1.66249 12.5125L2.27501 10.4125L2.09999 10.15C1.48749 9.1875 1.22499 8.1375 1.22499 7.0875C1.22499 3.9375 3.85 1.3125 7 1.3125C8.575 1.3125 9.97501 1.925 11.1125 2.975C12.25 4.1125 12.775 5.5125 12.775 7.0875C12.775 10.15 10.2375 12.775 7 12.775ZM10.15 8.4C9.97501 8.3125 9.10001 7.875 8.92501 7.875C8.75001 7.7875 8.66249 7.7875 8.57499 7.9625C8.48749 8.1375 8.13751 8.4875 8.05001 8.6625C7.96251 8.75 7.87499 8.75 7.69999 8.75C7.52499 8.6625 7.00001 8.4875 6.30001 7.875C5.77501 7.4375 5.42501 6.825 5.33751 6.65C5.25001 6.475 5.33751 6.3875 5.42501 6.3C5.51251 6.2125 5.6 6.125 5.6875 6.0375C5.775 5.95 5.77501 5.8625 5.86251 5.775C5.95001 5.6875 5.86251 5.6 5.86251 5.5125C5.86251 5.425 5.51251 4.55 5.33751 4.2C5.25001 3.9375 5.07501 3.9375 4.98751 3.9375C4.90001 3.9375 4.81249 3.9375 4.63749 3.9375C4.54999 3.9375 4.37499 3.9375 4.19999 4.1125C4.02499 4.2875 3.58751 4.725 3.58751 5.6C3.58751 6.475 4.19999 7.2625 4.28749 7.4375C4.37499 7.525 5.51249 9.3625 7.26249 10.0625C8.74999 10.675 9.01251 10.5 9.36251 10.5C9.71251 10.5 10.4125 10.0625 10.5 9.7125C10.675 9.275 10.675 8.925 10.5875 8.925C10.5 8.4875 10.325 8.4875 10.15 8.4Z" fill="white"/>
</svg>
