<svg width="39" height="39" viewBox="0 0 39 39" fill="none" xmlns="http://www.w3.org/2000/svg">
<path d="M37.8397 35.2606L36.0486 29.6734C37.8692 26.7179 38.9218 23.2388 38.9218 19.5123C38.9218 8.7967 30.2354 0.110275 19.5197 0.110275C8.80409 0.110275 0.118152 8.7967 0.118152 19.5123C0.118152 30.2275 8.80458 38.9139 19.5197 38.9139C23.9939 38.9139 28.1113 37.3953 31.3935 34.8511L31.3867 34.8599L37.8397 35.2606Z" fill="#FAFAFA"/>
<path d="M37.8381 35.2601C37.8381 35.2601 37.7055 35.2572 37.432 35.2436C37.1484 35.2286 36.7409 35.2078 36.2062 35.1797C35.1052 35.1193 33.4873 35.0302 31.3822 34.9141C31.3521 34.9126 31.3289 34.887 31.3309 34.8569C31.3313 34.8458 31.3357 34.8347 31.3425 34.8265L31.3492 34.8178L31.4262 34.8942C29.4454 36.4366 26.5083 38.1052 22.6672 38.7411C21.7123 38.9023 20.7067 38.9928 19.6643 39.0005C18.6243 38.9575 17.5407 38.9541 16.4455 38.744C14.2513 38.4009 11.9714 37.6561 9.81877 36.4216C7.66761 35.1918 5.64857 33.4748 4.00943 31.3251C2.36981 29.1802 1.11637 26.5998 0.47756 23.7759C-0.175773 20.9569 -0.167062 17.8964 0.554992 14.9327C0.649847 14.5635 0.745185 14.1927 0.840523 13.8216C0.949896 13.4542 1.09799 13.0981 1.22526 12.7341C1.369 12.377 1.4653 11.998 1.64969 11.6554C1.81762 11.306 1.98652 10.9556 2.15542 10.6047C2.31076 10.2461 2.52225 9.91704 2.72599 9.58263L3.33916 8.57747L4.04766 7.62989L4.40337 7.15466C4.52484 6.99834 4.66664 6.85848 4.7973 6.70942C6.92959 4.28386 9.59325 2.38339 12.5081 1.30418C15.4079 0.193509 18.4917 -0.18881 21.4181 0.0851059C24.3494 0.363861 27.1021 1.33515 29.4546 2.73522C31.8114 4.13771 33.768 5.97817 35.2455 8.00302C36.7284 10.0288 37.7316 12.2352 38.3157 14.3975C38.6351 15.4757 38.7701 16.5564 38.9134 17.5944C38.9584 18.6417 39.0465 19.6522 38.9695 20.623C38.7397 24.5217 37.3972 27.6079 36.0929 29.7L36.0983 29.6564C36.6679 31.4785 37.1063 32.8819 37.4054 33.8392C37.5487 34.3033 37.6585 34.6576 37.735 34.9049C37.8066 35.1434 37.8381 35.2601 37.8381 35.2601C37.8381 35.2601 37.7916 35.1323 37.7108 34.8899C37.628 34.6411 37.5095 34.2844 37.3546 33.8169C37.0439 32.8723 36.5885 31.4872 35.9971 29.6888C35.9923 29.6738 35.9947 29.6579 36.0024 29.6453C37.2815 27.5527 38.594 24.4806 38.804 20.6138C38.8761 19.6507 38.7837 18.6494 38.7353 17.6119C38.5887 16.5835 38.4512 15.5134 38.1308 14.4473C37.5448 12.3082 36.5454 10.128 35.0733 8.12788C33.6064 6.12868 31.6677 4.31338 29.336 2.9317C27.0087 1.55245 24.2884 0.59761 21.3929 0.32563C18.5018 0.0584894 15.4578 0.439358 12.5957 1.53696C9.71908 2.60358 7.09026 4.48083 4.98556 6.87493C4.85635 7.02205 4.71648 7.15998 4.59646 7.31436L4.2456 7.78331L3.54629 8.7183L2.94135 9.7104C2.74003 10.0405 2.53145 10.3652 2.37803 10.7194C2.21107 11.0659 2.04459 11.4115 1.87811 11.7565C1.69566 12.0943 1.60129 12.4684 1.45901 12.8212C1.33318 13.1803 1.18606 13.5317 1.07814 13.8941C0.983773 14.261 0.889887 14.6264 0.796 14.9913C0.0812053 17.9158 0.0700742 20.9395 0.712277 23.7237C1.33996 26.5132 2.57355 29.0636 4.19043 31.1867C5.80634 33.3146 7.79876 35.0167 9.92331 36.2381C12.0493 37.465 14.3031 38.2088 16.4745 38.5558C17.5581 38.7678 18.631 38.7745 19.6618 38.8215C20.6946 38.8181 21.692 38.7319 22.6391 38.5766C26.4502 37.9629 29.3757 36.3257 31.3584 34.8081C31.3822 34.7897 31.4165 34.7936 31.4354 34.8178C31.4509 34.8376 31.4504 34.8657 31.4354 34.885L31.4286 34.8937L31.3889 34.8056C33.4762 34.9499 35.0795 35.0607 36.1708 35.1362C36.7114 35.1754 37.1237 35.2049 37.4102 35.2252C37.69 35.2456 37.8381 35.2601 37.8381 35.2601Z" fill="#263238"/>
<path d="M14.0585 19.5128C14.0585 20.6012 13.1763 21.4839 12.0879 21.4839C10.999 21.4839 10.1168 20.6016 10.1168 19.5128C10.1168 18.4244 10.999 17.5416 12.0879 17.5416C13.1758 17.5421 14.0585 18.4244 14.0585 19.5128Z" fill="#263238"/>
<path d="M21.9378 19.5128C21.9378 20.6012 21.0551 21.4839 19.9667 21.4839C18.8783 21.4839 17.9955 20.6016 17.9955 19.5128C17.9955 18.4244 18.8778 17.5416 19.9667 17.5416C21.0555 17.5421 21.9378 18.4244 21.9378 19.5128Z" fill="#263238"/>
<path d="M29.8105 18.5276C30.3549 19.4703 30.0317 20.6758 29.0889 21.2198C28.1462 21.7642 26.9407 21.441 26.3967 20.4982C25.8523 19.5555 26.1755 18.35 27.1183 17.8055C28.061 17.262 29.266 17.5848 29.8105 18.5276Z" fill="#263238"/>
</svg>
