<svg width="13" height="13" viewBox="0 0 13 13" fill="none" xmlns="http://www.w3.org/2000/svg">
<path d="M5.94993 0.400063C6.12307 -0.132805 6.87693 -0.132803 7.05007 0.400065L8.18811 3.90258C8.26554 4.14088 8.48761 4.30223 8.73818 4.30223H12.4209C12.9812 4.30223 13.2142 5.0192 12.7609 5.34853L9.78149 7.5132C9.57877 7.66048 9.49395 7.92154 9.57138 8.15985L10.7094 11.6624C10.8826 12.1952 10.2727 12.6383 9.81938 12.309L6.83996 10.1443C6.63725 9.99706 6.36275 9.99706 6.16004 10.1443L3.18062 12.309C2.72733 12.6383 2.11745 12.1952 2.29059 11.6624L3.42862 8.15985C3.50605 7.92155 3.42123 7.66048 3.21851 7.5132L0.239094 5.34853C-0.214191 5.0192 0.0187686 4.30223 0.579059 4.30223H4.26182C4.51239 4.30223 4.73446 4.14088 4.81189 3.90258L5.94993 0.400063Z" fill="url(#paint0_linear_0_19)"/>
<defs>
<linearGradient id="paint0_linear_0_19" x1="-1.59732" y1="-1.29288" x2="14.5973" y2="14.9018" gradientUnits="userSpaceOnUse">
<stop stop-color="#7C3AED"/>
<stop offset="1" stop-color="#5821B6"/>
</linearGradient>
</defs>
</svg>
