<svg width="4" height="2" viewBox="0 0 4 2" fill="none" xmlns="http://www.w3.org/2000/svg">
<path d="M0.947559 1.99934C0.902451 1.99364 0.878082 1.98482 0.853714 1.95942L0.0360712 1.10289C-0.013703 1.05104 -0.0116313 0.969121 0.0402168 0.919347C0.0920649 0.870609 0.174502 0.871644 0.223239 0.923492L0.948603 1.68307L2.53775 0.065929C2.58908 0.0151178 2.67098 0.0145962 2.72128 0.0643704C2.77261 0.114663 2.77364 0.196585 2.72335 0.247915L1.03985 1.96045C1.01497 1.98534 0.982297 1.99934 0.947559 1.99934Z" fill="#FF725E"/>
<path d="M2.1165 1.97191C2.11546 1.97191 2.11443 1.97191 2.1134 1.97191L1.96303 1.96829C1.89096 1.96673 1.83497 1.9071 1.83653 1.83555C1.8386 1.764 1.90703 1.70905 1.96925 1.70905L2.06362 1.71164L3.70772 0.0385028C3.75905 -0.0123083 3.84096 -0.0128299 3.89074 0.0369443C3.94207 0.0872369 3.94312 0.169159 3.89283 0.220489L2.20931 1.93355C2.18443 1.95792 2.15175 1.97191 2.1165 1.97191Z" fill="#FF725E"/>
</svg>
