<svg width="4" height="2" viewBox="0 0 4 2" fill="none" xmlns="http://www.w3.org/2000/svg">
<path d="M0.947559 1.99948H0.94653C0.911792 1.99948 0.878082 1.98496 0.853714 1.95955L0.0360712 1.10354C-0.013703 1.05169 -0.0116313 0.969772 0.0402168 0.919998C0.0920649 0.87126 0.174502 0.872814 0.223239 0.924143L0.948603 1.68372L2.53775 0.0665798C2.58908 0.0152502 2.67098 0.0142144 2.72128 0.064507C2.77261 0.115318 2.77364 0.19724 2.72335 0.248051L1.03985 1.96111C1.01497 1.98547 0.982297 1.99948 0.947559 1.99948Z" fill="#FF725E"/>
<path d="M2.11547 1.97257C2.11443 1.97257 2.11288 1.97257 2.11184 1.97257L1.96148 1.96842C1.88993 1.96635 1.83342 1.90673 1.8355 1.83518C1.83757 1.76363 1.89097 1.6957 1.96874 1.70918L2.06311 1.71178L3.70668 0.0391487C3.75801 -0.0126994 3.83993 -0.0126983 3.88971 0.0370759C3.94104 0.0878871 3.94209 0.169805 3.8918 0.220098L2.20828 1.93317C2.1834 1.95805 2.15072 1.97257 2.11547 1.97257Z" fill="#FF725E"/>
</svg>
