<svg width="211" height="202" viewBox="0 0 211 202" fill="none" xmlns="http://www.w3.org/2000/svg">
<path d="M21.5097 176.437L16.3932 172.917C16.3932 172.917 13.4375 177.213 8.91988 174.217C6.57371 172.662 6.41675 170.316 6.72874 168.816C7.09128 167.075 8.32239 165.653 9.94444 164.923C11.7966 164.089 14.5935 164.098 17.6233 167.077L25.5612 155.541L20.502 152.06L15.852 158.818C15.852 158.818 7.49427 155.77 2.11391 163.59C-3.03391 171.072 2.47982 177.425 5.35175 179.402C7.54819 180.913 15.3951 185.53 21.5097 176.437Z" fill="#EBEBEB"/>
<path d="M22.0724 149.646L27.2068 153.179L30.506 148.383L25.3717 144.851L22.0724 149.646Z" fill="#EBEBEB"/>
<path d="M43.3256 190.589L46.0425 189.873C46.0425 189.873 45.4406 187.591 47.8008 186.925C49.0266 186.579 49.8778 187.217 50.3001 187.767C50.7907 188.405 50.9149 189.247 50.6872 190.019C50.4267 190.9 49.599 191.857 47.6828 192.017L49.2986 198.143L51.9852 197.435L51.0386 193.846C51.0386 193.846 54.5495 191.878 53.4541 187.726C52.406 183.753 48.6 183.77 47.0747 184.172C45.9081 184.479 42.0097 185.81 43.3256 190.589Z" fill="#EBEBEB"/>
<path d="M52.359 198.678L49.6324 199.397L50.3042 201.944L53.0308 201.224L52.359 198.678Z" fill="#EBEBEB"/>
<path d="M88.4572 19.0357C89.8491 18.1946 91.3311 17.5566 92.8593 17.1224L93.7659 12.7651L101.128 12.6361L102.188 16.9587C103.73 17.339 105.234 17.924 106.655 18.716L110.375 16.2769L115.672 21.3915L113.366 25.1951C114.208 26.5875 114.845 28.0699 115.279 29.5985L119.636 30.5051L119.765 37.8672L115.443 38.9269C115.063 40.4695 114.477 41.9726 113.685 43.3934L116.124 47.1147L111.01 52.4117L107.206 50.1055C105.814 50.9466 104.332 51.5846 102.803 52.0184L101.896 56.3756L94.5343 56.5047L93.4746 52.1816C91.932 51.8012 90.4288 51.2158 89.008 50.4243L85.2873 52.8634L79.9902 47.7488L82.2964 43.9452C81.4553 42.5528 80.8169 41.0709 80.3831 39.5422L76.0258 38.6356L75.8968 31.2736L80.2194 30.2139C80.5997 28.6712 81.1852 27.1681 81.9767 25.7473L79.5381 22.0266L84.6522 16.7295L88.4572 19.0357ZM92.3816 28.8426C89.3513 31.9813 89.4394 36.9818 92.5781 40.0116C95.7167 43.0415 100.717 42.9539 103.747 39.8152C106.777 36.677 106.689 31.6761 103.551 28.6462C100.412 25.6168 95.4115 25.7045 92.3816 28.8426Z" fill="#F5F5F5"/>
<path d="M57.625 3.68609C58.4266 3.20173 59.2803 2.83438 60.1604 2.58402L60.6828 0.0741451L64.923 0L65.533 2.48965C66.4218 2.70872 67.2875 3.04574 68.106 3.50169L70.249 2.09678L73.3 5.04285L71.9717 7.23351C72.4565 8.03563 72.8239 8.88927 73.0737 9.76939L75.5831 10.2918L75.6578 14.532L73.1681 15.1425C72.949 16.0308 72.612 16.897 72.1561 17.715L73.5605 19.858L70.6149 22.909L68.4238 21.5807C67.6221 22.0655 66.768 22.4324 65.8879 22.6822L65.3655 25.1921L61.1252 25.2667L60.5148 22.7771C59.6265 22.558 58.7603 22.221 57.9423 21.7651L55.7993 23.17L52.7483 20.2244L54.0766 18.0337C53.5923 17.2316 53.2244 16.3784 52.9745 15.4978L50.4652 14.9755L50.3905 10.7352L52.8802 10.1247C53.0992 9.2364 53.4368 8.37025 53.8922 7.55224L52.4878 5.40925L55.4334 2.35821L57.625 3.68609ZM59.8855 9.33462C58.1402 11.1425 58.1907 14.0222 59.9986 15.7675C61.8065 17.5128 64.6866 17.4622 66.4315 15.6543C68.1768 13.8469 68.1262 10.9663 66.3183 9.22148C64.5104 7.47665 61.6303 7.52721 59.8855 9.33462Z" fill="#EBEBEB"/>
<path d="M192.967 82.4162C193.769 81.9319 194.622 81.5645 195.503 81.3141L196.025 78.8043L200.265 78.7296L200.875 81.2193C201.764 81.4384 202.63 81.7754 203.448 82.2313L205.591 80.8264L208.642 83.7725L207.314 85.9631C207.799 86.7653 208.166 87.6189 208.416 88.4995L210.925 89.0219L211 93.2621L208.51 93.8726C208.291 94.7609 207.954 95.6266 207.498 96.4451L208.903 98.5881L205.957 101.639L203.766 100.311C202.964 100.796 202.11 101.162 201.23 101.412L200.708 103.922L196.467 103.996L195.857 101.507C194.969 101.288 194.103 100.951 193.285 100.495L191.141 101.9L188.09 98.954L189.419 96.7634C188.934 95.9612 188.567 95.1081 188.317 94.2275L185.807 93.7051L185.733 89.4648L188.222 88.8543C188.441 87.966 188.778 87.0999 189.234 86.2819L187.83 84.1389L190.776 81.0878L192.967 82.4162ZM195.228 88.0647C193.482 89.8726 193.533 92.7523 195.341 94.4976C197.148 96.2429 200.029 96.1923 201.774 94.3844C203.519 92.5765 203.468 89.6964 201.661 87.9516C199.853 86.2068 196.973 86.2573 195.228 88.0647Z" fill="#EBEBEB"/>
</svg>
