<svg width="21" height="9" viewBox="0 0 21 9" fill="none" xmlns="http://www.w3.org/2000/svg">
<path d="M2.49427 4.06849L4.12782 0.45136C4.45275 0.45136 4.76438 0.57839 4.99414 0.804504C5.2239 1.03062 5.35298 1.3373 5.35298 1.65707V3.26469H7.66445C7.78284 3.26337 7.90011 3.2874 8.00813 3.33511C8.11615 3.38282 8.21234 3.45307 8.29004 3.541C8.36773 3.62893 8.42507 3.73243 8.45808 3.84433C8.49109 3.95623 8.49899 4.07386 8.48122 4.18907L7.91765 7.8062C7.88811 7.99787 7.78918 8.17258 7.63909 8.29813C7.48899 8.42369 7.29785 8.49163 7.10087 8.48944H2.49427M2.49427 4.06849V8.48944M2.49427 4.06849H1.26911C1.05249 4.06849 0.844743 4.15318 0.691568 4.30392C0.538393 4.45467 0.452341 4.65912 0.452341 4.8723V7.68563C0.452341 7.89881 0.538393 8.10326 0.691568 8.25401C0.844743 8.40475 1.05249 8.48944 1.26911 8.48944H2.49427" stroke="#92979E" stroke-width="0.9" stroke-linecap="round" stroke-linejoin="round"/>
<path d="M18.5057 4.87239L16.8722 8.48949C16.5472 8.48949 16.2356 8.36246 16.0059 8.13635C15.7761 7.91023 15.647 7.60356 15.647 7.28379V5.67619H13.3356C13.2172 5.67751 13.0999 5.65348 12.9919 5.60577C12.8838 5.55806 12.7877 5.48781 12.71 5.39988C12.6323 5.31195 12.5749 5.20845 12.5419 5.09655C12.5089 4.98465 12.501 4.86703 12.5188 4.75182L13.0824 1.13473C13.1119 0.943065 13.2108 0.768359 13.3609 0.642806C13.511 0.517253 13.7022 0.449314 13.8991 0.451505H18.5057M18.5057 4.87239V0.451505M18.5057 4.87239H19.5961C19.8272 4.87642 20.0518 4.79678 20.2272 4.64861C20.4027 4.50044 20.5167 4.29404 20.5477 4.0686V1.2553C20.5167 1.02986 20.4027 0.823463 20.2272 0.67529C20.0518 0.527116 19.8272 0.447482 19.5961 0.451505H18.5057" stroke="#92979E" stroke-width="0.9" stroke-linecap="round" stroke-linejoin="round"/>
</svg>
