<svg width="88" height="40" viewBox="0 0 88 40" fill="none" xmlns="http://www.w3.org/2000/svg">
<rect width="40" height="40" rx="20" fill="white"/>
<rect x="0.408163" y="0.408163" width="39.1837" height="39.1837" rx="19.5918" stroke="black" stroke-opacity="0.05" stroke-width="0.816326"/>
<path d="M21.0562 16.1887L23.81 18.9425L18.4015 24.352C18.2509 24.5027 18.0635 24.6115 17.8578 24.6677L15.0736 25.4268C15.0042 25.4457 14.9311 25.4458 14.8616 25.4273C14.7922 25.4088 14.7288 25.3722 14.678 25.3214C14.6272 25.2705 14.5907 25.2071 14.5723 25.1376C14.5538 25.0681 14.554 24.995 14.573 24.9256L15.3321 22.1414C15.3882 21.9358 15.497 21.7484 15.6478 21.5977L21.0551 16.1887H21.0562ZM24.9147 15.084C25.2799 15.4492 25.485 15.9444 25.485 16.4609C25.485 16.9773 25.2799 17.4726 24.9147 17.8377L24.3868 18.3656L21.6331 15.6119L22.161 15.084C22.5261 14.7188 23.0214 14.5137 23.5378 14.5137C24.0543 14.5137 24.5495 14.7188 24.9147 15.084Z" fill="#42526D"/>
<rect x="48" width="40" height="40" rx="20" fill="white"/>
<rect x="48.4082" y="0.408163" width="39.1837" height="39.1837" rx="19.5918" stroke="black" stroke-opacity="0.05" stroke-width="0.816326"/>
<path d="M73.1702 16.7341C73.1702 16.8674 73.1213 16.9961 73.0327 17.0957C72.9441 17.1953 72.8221 17.2589 72.6897 17.2745L72.626 17.2784H72.1661L71.4962 24.092C71.4597 24.4617 71.287 24.8046 71.0117 25.0541C70.7364 25.3035 70.3782 25.4417 70.0067 25.4416H65.9936C65.6221 25.4417 65.2639 25.3035 64.9886 25.0541C64.7132 24.8046 64.5406 24.4617 64.5041 24.092L63.8342 17.2784H63.3743C63.23 17.2784 63.0915 17.221 62.9895 17.119C62.8874 17.0169 62.8301 16.8785 62.8301 16.7341C62.8301 16.5898 62.8874 16.4514 62.9895 16.3493C63.0915 16.2473 63.23 16.1899 63.3743 16.1899H66.0954C66.0954 15.9398 66.1447 15.6921 66.2404 15.461C66.3361 15.2299 66.4764 15.0199 66.6533 14.843C66.8301 14.6662 67.0401 14.5259 67.2712 14.4301C67.5023 14.3344 67.75 14.2852 68.0001 14.2852C68.2503 14.2852 68.498 14.3344 68.7291 14.4301C68.9602 14.5259 69.1701 14.6662 69.347 14.843C69.5239 15.0199 69.6642 15.2299 69.7599 15.461C69.8556 15.6921 69.9049 15.9398 69.9049 16.1899H72.626C72.7703 16.1899 72.9088 16.2473 73.0108 16.3493C73.1129 16.4514 73.1702 16.5898 73.1702 16.7341ZM69.2246 18.5028C69.126 18.5028 69.0307 18.5386 68.9564 18.6034C68.882 18.6682 68.8337 18.7578 68.8203 18.8555L68.8165 18.911V22.7205L68.8203 22.776C68.8337 22.8737 68.8821 22.9633 68.9564 23.0281C69.0307 23.0929 69.126 23.1286 69.2246 23.1286C69.3233 23.1286 69.4185 23.0929 69.4929 23.0281C69.5672 22.9633 69.6155 22.8737 69.629 22.776L69.6328 22.7205V18.911L69.629 18.8555C69.6156 18.7578 69.5672 18.6682 69.4929 18.6034C69.4186 18.5386 69.3233 18.5028 69.2246 18.5028ZM66.7757 18.5028C66.677 18.5028 66.5817 18.5386 66.5074 18.6034C66.4331 18.6682 66.3847 18.7578 66.3713 18.8555L66.3675 18.911V22.7205L66.3713 22.776C66.3847 22.8737 66.4331 22.9633 66.5074 23.0281C66.5818 23.0929 66.677 23.1286 66.7757 23.1286C66.8743 23.1286 66.9696 23.0929 67.0439 23.0281C67.1182 22.9633 67.1666 22.8737 67.18 22.776L67.1838 22.7205V18.911L67.18 18.8555C67.1666 18.7578 67.1183 18.6682 67.0439 18.6034C66.9696 18.5386 66.8743 18.5028 66.7757 18.5028ZM68.0001 15.3736C67.7836 15.3736 67.576 15.4596 67.4229 15.6127C67.2698 15.7658 67.1838 15.9734 67.1838 16.1899H68.8165C68.8165 15.9734 68.7305 15.7658 68.5774 15.6127C68.4243 15.4596 68.2166 15.3736 68.0001 15.3736Z" fill="#D90026"/>
</svg>
